<svg width="1703" height="330" viewBox="0 0 1703 330" fill="none" xmlns="http://www.w3.org/2000/svg">
<g clip-path="url(#clip0)">
<path d="M1483.46 295.504L1607.69 296.297" stroke="#0F5870" stroke-width="9.76954" stroke-miterlimit="10" stroke-linecap="round" stroke-linejoin="round"/>
<path d="M1561.73 324.693L1627.88 325.114" stroke="#0F5870" stroke-width="9.76954" stroke-miterlimit="10" stroke-linecap="round" stroke-linejoin="round"/>
<path d="M313.274 40.894C323.623 40.894 332.012 32.5046 332.012 22.1557C332.012 11.8069 323.623 3.41748 313.274 3.41748C302.925 3.41748 294.536 11.8069 294.536 22.1557C294.536 32.5046 302.925 40.894 313.274 40.894Z" stroke="#0F5870" stroke-width="6.83842" stroke-miterlimit="10"/>
<path d="M362.151 61.993L380.546 62.1107" stroke="#0F5870" stroke-width="6.84365" stroke-miterlimit="10" stroke-linecap="round" stroke-linejoin="round"/>
<path d="M401.378 61.993L419.771 62.1107" stroke="#0F5870" stroke-width="6.84365" stroke-miterlimit="10" stroke-linecap="round" stroke-linejoin="round"/>
<path d="M390.59 51.0719L390.706 32.6791" stroke="#0F5870" stroke-width="6.84365" stroke-miterlimit="10" stroke-linecap="round" stroke-linejoin="round"/>
<path d="M390.363 92.4769L390.48 74.0841" stroke="#0F5870" stroke-width="6.84365" stroke-miterlimit="10" stroke-linecap="round" stroke-linejoin="round"/>
<path d="M1641.68 158.657L1660.07 158.775" stroke="#0F5870" stroke-width="6.84365" stroke-miterlimit="10" stroke-linecap="round" stroke-linejoin="round"/>
<path d="M1680.9 158.657L1699.3 158.775" stroke="#0F5870" stroke-width="6.84365" stroke-miterlimit="10" stroke-linecap="round" stroke-linejoin="round"/>
<path d="M1670.12 147.734L1670.24 129.341" stroke="#0F5870" stroke-width="6.84365" stroke-miterlimit="10" stroke-linecap="round" stroke-linejoin="round"/>
<path d="M1669.89 189.139L1670.01 170.749" stroke="#0F5870" stroke-width="6.84365" stroke-miterlimit="10" stroke-linecap="round" stroke-linejoin="round"/>
<path d="M104.275 64.7408C95.0913 69.5039 74.0919 81.969 58.9782 107.41C45.7306 129.715 43.5872 150.916 43.2235 161.24" stroke="#0E576F" stroke-width="9.76954" stroke-miterlimit="10" stroke-linecap="round" stroke-linejoin="round"/>
<path d="M90.5349 30.9996C77.8892 37.5553 48.9705 54.7207 28.1622 89.7581C9.91594 120.472 6.96388 149.668 6.46402 163.884" stroke="#0E576F" stroke-width="9.76954" stroke-miterlimit="10" stroke-linecap="round" stroke-linejoin="round"/>
<path d="M129.765 57.2144C129.765 60.7841 126.871 63.6786 123.298 63.6786C119.729 63.6786 116.834 60.7841 116.834 57.2144C116.834 53.6447 119.729 50.7502 123.298 50.7502C126.873 50.7502 129.765 53.6447 129.765 57.2144Z" fill="#0F5870"/>
<path d="M344.289 97.0517C344.289 100.441 341.541 103.191 338.152 103.191C334.76 103.191 332.013 100.441 332.013 97.0517C332.013 93.6626 334.76 90.9147 338.152 90.9147C341.541 90.9173 344.289 93.6652 344.289 97.0517Z" fill="#0F5870"/>
<path d="M114.18 24.5349C114.18 28.1046 111.286 31.0017 107.716 31.0017C104.147 31.0017 101.252 28.1046 101.252 24.5349C101.252 20.9652 104.147 18.0707 107.716 18.0707C111.286 18.0681 114.18 20.9626 114.18 24.5349Z" fill="#0F5870"/>
<path d="M132.018 20.4971C132.018 24.0668 129.124 26.9613 125.554 26.9613C121.985 26.9613 119.09 24.0668 119.09 20.4971C119.09 16.9274 121.985 14.033 125.554 14.033C129.124 14.0303 132.018 16.9248 132.018 20.4971Z" fill="#0F5870"/>
<path d="M49.6902 180.892C49.6902 184.462 46.7957 187.362 43.2234 187.362C39.6537 187.362 36.7592 184.464 36.7592 180.892C36.7592 177.325 39.6537 174.428 43.2234 174.428C46.7957 174.428 49.6902 177.322 49.6902 180.892Z" fill="#0F5870"/>
<path d="M12.9283 182.941C12.9283 186.511 10.0339 189.408 6.46417 189.408C2.89448 189.408 0 186.514 0 182.941C0 179.369 2.89448 176.475 6.46417 176.475C10.0339 176.475 12.9283 179.372 12.9283 182.941Z" fill="#0F5870"/>
<path d="M14.0223 200.934C14.0223 204.503 11.1278 207.403 7.55551 207.403C3.98582 207.403 1.09134 204.506 1.09134 200.934C1.09134 197.367 3.98582 194.47 7.55551 194.47C11.1278 194.47 14.0223 197.367 14.0223 200.934Z" fill="#0F5870"/>
<path d="M396.552 253.804C371.758 253.804 352.431 235.259 352.431 207.733C352.431 179.23 372.931 160.49 395.966 160.49C422.712 160.49 434.427 181.376 434.427 192.504C434.427 199.733 430.132 205.192 420.174 205.584C415.686 205.783 409.051 205.783 401.823 205.783C387.183 205.783 370.586 205.584 366.291 205.584C364.341 205.584 363.949 206.362 363.949 209.096C363.949 230.381 378.005 243.456 396.746 243.456C410.998 243.456 418.999 237.403 425.052 230.575C426.225 229.405 427.591 228.816 428.959 228.816C431.888 228.816 434.816 231.352 434.816 234.474C434.816 238.965 421.147 253.804 396.552 253.804ZM396.16 170.249C377.416 170.249 365.514 187.042 365.514 194.26C365.514 196.213 367.267 196.213 389.913 196.213C400.067 196.213 411.001 196.213 416.466 196.019C421.15 195.825 422.909 193.677 422.909 190.554C422.909 184.891 416.076 170.249 396.16 170.249Z" fill="#0B546F"/>
<path d="M539.84 172.005C538.28 172.005 536.717 171.814 535.349 171.814C532.616 171.814 531.837 172.201 530.08 174.546C523.828 182.162 514.263 193.289 506.456 202.852C505.87 203.436 505.676 204.022 505.676 204.412C505.676 205.001 506.069 205.388 506.652 206.171C515.634 216.911 526.759 229.596 534.375 238.578C535.741 239.947 536.717 240.928 543.354 240.928C547.063 240.724 548.625 243.652 548.625 246.188C548.625 248.735 546.869 251.268 543.551 251.268H543.158C537.89 251.074 533.009 250.881 528.518 250.881C523.828 250.881 519.343 251.074 514.852 251.268H514.462C510.947 251.268 509.191 248.923 509.191 246.581C509.191 241.506 514.263 241.506 516.022 241.506C520.123 241.506 521.879 241.318 521.879 240.337C521.879 239.949 521.685 239.748 521.489 239.366C520.709 238.384 500.016 211.834 498.453 211.834C498.063 211.834 497.671 212.418 496.891 213.197C491.816 219.444 482.641 231.158 476.001 239.363C475.805 239.551 475.805 239.745 475.805 240.14C476.001 240.928 477.561 241.116 479.513 241.116C483.614 241.116 487.71 241.315 487.71 246.188C487.71 248.735 486.145 251.268 482.049 251.268H481.659C476.972 251.074 472.678 250.881 468.386 250.881C464.088 250.881 459.597 251.074 454.528 251.268C450.422 251.462 449.061 248.538 449.061 246.188C449.061 243.652 450.621 241.116 453.942 241.116H454.133C459.406 241.116 460.576 240.533 460.969 240.334C464.287 238.382 491.814 204.805 491.814 204.221C491.814 203.046 467.606 174.543 467.409 174.352C466.043 172.785 465.263 171.811 463.308 171.811C460.186 171.811 460.38 171.811 457.454 172.002C457.062 172.002 452.181 172.002 452.181 167.129C452.181 164.585 453.746 162.246 457.059 162.246H457.451C462.523 162.439 467.211 162.439 471.701 162.439C476.386 162.439 480.877 162.439 485.365 162.246H485.76C489.076 162.246 490.639 164.588 490.639 166.739C490.639 171.612 486.928 171.612 483.808 171.612C481.463 171.612 479.511 171.612 479.511 172.984C479.511 173.371 479.511 173.957 479.898 174.35C481.46 176.49 497.275 196.995 499.032 196.995C500.597 196.995 517.969 173.954 517.969 172.981C517.775 171.999 516.603 171.808 514.65 171.808C510.746 171.808 506.841 171.808 506.841 166.925C506.841 164.583 508.207 162.243 511.724 162.243H512.112C516.799 162.437 521.091 162.437 525.385 162.437C529.874 162.437 534.561 162.437 539.638 162.243H539.832C543.346 162.243 545.105 164.782 545.105 167.318C545.105 169.66 543.543 171.999 540.028 171.999H539.84V172.005Z" fill="#0B546F"/>
<path d="M595.667 301.636C590.394 301.437 583.561 301.437 577.117 301.437C572.626 301.437 568.138 301.437 564.626 301.636C563.459 301.636 558.963 301.636 559.159 296.36C559.159 293.63 560.721 291.094 564.236 291.094H564.626C567.162 291.283 567.748 291.283 570.873 291.283C573.605 291.283 574.584 289.529 574.584 286.596C574.775 267.075 574.775 236.819 574.775 211.054V182.745C574.775 177.084 573.022 173.376 567.945 173.18C566.191 173.18 566.578 173.376 564.037 173.376H563.844C560.329 173.376 558.374 170.641 558.374 167.901C558.374 165.37 560.329 162.442 564.037 162.442C566.578 162.442 568.528 162.248 570.48 162.248C577.9 162.442 584.537 167.132 585.12 174.742C585.319 176.304 585.12 177.862 585.513 177.862C585.9 177.862 586.29 177.275 587.073 176.302C593.513 167.129 606.201 160.877 619.281 160.877C644.661 160.877 663.599 179.809 663.599 207.343C663.599 235.257 644.664 253.608 619.281 253.608C607.766 253.608 596.052 248.92 588.245 239.363C587.073 237.994 586.486 237.018 586.29 237.018C585.9 237.018 585.9 237.994 585.9 240.14V286.598C585.9 289.145 586.879 291.097 590.391 291.097C593.513 291.097 593.126 290.898 596.052 290.898H596.246C599.567 290.898 601.323 293.434 601.323 296.169C601.323 298.904 599.564 301.639 595.853 301.639H595.667V301.636ZM652.086 207.345C652.086 185.48 637.441 171.031 618.899 171.031C600.354 171.031 585.709 185.48 585.709 207.345C585.709 229.209 600.354 243.458 618.899 243.458C637.441 243.458 652.086 229.209 652.086 207.345Z" fill="#0B546F"/>
<path d="M718.842 251.462C713.569 251.268 707.717 251.074 702.247 251.074C696.783 251.074 691.313 251.268 686.626 251.462C685.846 251.462 680.578 251.661 680.578 245.992C680.578 243.263 682.528 240.533 686.433 240.533H686.624C688.189 240.533 689.358 240.721 690.335 240.721C693.459 240.721 697.168 240.721 697.168 237.016C697.361 219.837 697.555 183.913 697.555 156.19V130.226C697.555 124.371 696.385 121.836 691.117 121.642C689.356 121.642 689.356 121.642 686.817 121.836H686.43C682.915 121.836 681.358 119.294 681.358 116.559C681.358 113.634 683.308 110.708 687.016 110.708H693.069C704.98 110.708 709.078 117.928 709.078 126.515V127.106C708.691 148.189 708.489 192.311 708.489 220.617V237.016C708.489 240.138 711.033 240.533 716.495 240.533H718.84H719.033C722.935 240.533 724.888 243.263 724.888 245.992C724.888 248.732 722.935 251.462 719.033 251.462H718.842Z" fill="#0B546F"/>
<path d="M739.732 206.953C739.732 179.817 758.86 160.296 784.829 160.296C810.791 160.296 830.311 179.817 830.311 206.953C830.311 235.066 810.791 253.799 784.829 253.799C758.857 253.799 739.732 235.066 739.732 206.953ZM818.791 206.953C818.791 184.891 803.57 170.448 784.829 170.448C766.086 170.448 751.053 184.894 751.053 206.953C751.053 228.819 766.086 243.459 784.829 243.459C803.567 243.459 818.791 228.819 818.791 206.953Z" fill="#0B546F"/>
<path d="M884.189 251.268C879.115 251.074 873.449 250.875 868.186 250.875C862.904 250.875 857.641 251.074 853.148 251.268C848.66 251.462 847.296 248.339 847.296 246.193C847.296 243.459 849.243 240.724 852.954 240.724H853.148C855.684 240.724 856.66 240.923 859.787 240.923C861.74 240.923 862.904 239.554 862.904 237.405C863.103 222.373 863.297 210.468 863.297 197.382V182.161C863.297 176.888 861.737 173.376 856.856 173.177C855.103 173.177 855.291 173.177 852.753 173.373H852.564C849.047 173.373 847.294 170.638 847.294 167.904C847.294 164.978 849.047 162.245 852.753 162.245H858.222C866.032 162.245 872.478 165.564 873.65 172.591C873.65 173.177 874.037 173.177 874.234 173.177C874.621 173.177 875.016 172.986 875.404 172.591C880.674 165.37 892.001 160.877 903.124 160.489C906.84 160.293 909.569 162.245 909.569 165.954C909.569 168.686 907.617 171.424 904.105 171.424H903.911H902.93C889.463 171.424 874.817 180.204 874.433 194.653C874.433 198.364 874.234 204.412 874.234 211.829C874.234 219.256 874.433 228.036 874.433 237.405C874.433 239.363 875.597 240.923 877.751 240.923C880.674 240.923 881.452 240.923 884.192 240.724C887.51 240.535 890.049 242.87 890.049 245.994C890.049 248.541 888.096 251.271 884.385 251.271H884.189V251.268Z" fill="#0B546F"/>
<path d="M968.906 253.804C944.115 253.804 924.785 235.259 924.785 207.733C924.785 179.23 945.287 160.49 968.325 160.49C995.069 160.49 1006.78 181.376 1006.78 192.504C1006.78 199.733 1002.48 205.192 992.539 205.584C988.04 205.783 981.406 205.783 974.177 205.783C959.537 205.783 942.94 205.584 938.653 205.584C936.701 205.584 936.308 206.362 936.308 209.096C936.308 230.381 950.365 243.456 969.108 243.456C983.353 243.456 991.358 237.403 997.409 230.575C998.584 229.405 999.95 228.816 1001.31 228.816C1004.25 228.816 1007.17 231.352 1007.17 234.474C1007.17 238.965 993.507 253.804 968.906 253.804ZM968.517 170.249C949.773 170.249 937.868 187.042 937.868 194.26C937.868 196.213 939.621 196.213 962.27 196.213C972.416 196.213 983.35 196.213 988.82 196.019C993.507 195.825 995.26 193.677 995.26 190.554C995.26 184.891 988.427 170.249 968.517 170.249Z" fill="#0B546F"/>
<path d="M1055 172.787C1051.87 172.787 1051.87 173.18 1051.87 175.519C1051.87 182.939 1051.29 203.048 1051.29 217.497C1051.29 232.718 1051.68 243.066 1066.9 243.066C1068.66 243.066 1070.41 242.872 1072.37 242.679H1073.15C1076.08 242.679 1077.84 245.225 1077.84 247.759C1077.84 252.833 1073.15 253.807 1065.35 253.807C1040.36 253.807 1040.36 232.527 1040.36 223.935C1040.36 211.449 1040.74 187.629 1040.74 178.063V174.938C1040.74 172.991 1040.16 172.792 1038.79 172.792H1027.27C1023.57 172.792 1021.81 170.254 1021.81 167.527C1021.81 164.983 1023.57 162.447 1027.27 162.447H1038.6C1040.36 162.447 1040.74 162.254 1040.74 160.497C1040.74 159.715 1040.94 150.343 1040.94 143.51V138.828V138.627C1040.94 134.913 1043.87 132.966 1046.59 132.966C1049.53 132.966 1052.26 134.913 1052.26 139.014C1052.26 144.677 1051.87 160.296 1051.87 160.296C1051.87 162.442 1052.26 162.442 1054.8 162.442H1072.18C1075.88 162.442 1077.64 164.981 1077.64 167.522C1077.64 170.249 1075.88 172.787 1072.18 172.787H1055Z" fill="#0B546F"/>
<path d="M1140.7 253.804C1115.9 253.804 1096.57 235.259 1096.57 207.733C1096.57 179.23 1117.08 160.49 1140.11 160.49C1166.85 160.49 1178.57 181.376 1178.57 192.504C1178.57 199.733 1174.27 205.192 1164.31 205.584C1159.83 205.783 1153.19 205.783 1145.97 205.783C1131.33 205.783 1114.73 205.584 1110.44 205.584C1108.49 205.584 1108.09 206.362 1108.09 209.096C1108.09 230.381 1122.15 243.456 1140.88 243.456C1155.14 243.456 1163.15 237.403 1169.19 230.575C1170.37 229.405 1171.73 228.816 1173.1 228.816C1176.03 228.816 1178.96 231.352 1178.96 234.474C1178.96 238.965 1165.29 253.804 1140.7 253.804ZM1140.31 170.249C1121.57 170.249 1109.65 187.042 1109.65 194.26C1109.65 196.213 1111.41 196.213 1134.06 196.213C1144.21 196.213 1155.14 196.213 1160.61 196.019C1165.29 195.825 1167.05 193.677 1167.05 190.554C1167.05 184.891 1160.22 170.249 1140.31 170.249Z" fill="#0B546F"/>
<path d="M1245.52 253.61C1215.46 253.61 1199.64 230.771 1199.64 207.539C1199.64 180.207 1218.97 159.71 1243.57 159.71C1251.97 159.71 1259.97 162.248 1265.63 165.564C1266.01 165.763 1266.21 165.954 1266.6 165.954C1267.19 165.954 1267.38 164.784 1267.59 163.805C1267.77 161.461 1270.12 160.49 1272.27 160.49C1275.2 160.49 1277.93 162.049 1277.93 165.368V165.76C1277.73 169.856 1277.73 172.785 1277.73 175.909C1277.73 178.835 1277.73 181.963 1277.93 186.446V186.833C1277.93 190.159 1275.2 191.719 1272.27 191.719C1269.72 191.719 1266.99 190.159 1266.8 187.037C1266.6 182.934 1267.18 180.589 1264.85 177.857C1259.97 172.196 1252.55 169.853 1244.94 169.853C1225.8 169.853 1210.97 185.082 1210.97 206.752C1210.97 224.514 1222.48 243.058 1244.94 243.058C1254.89 243.058 1264.46 239.159 1269.92 231.737C1271.49 229.591 1273.25 228.814 1275 228.814C1278.32 228.814 1281.25 231.548 1281.25 234.862C1281.25 240.53 1266.6 253.61 1245.52 253.61Z" fill="#0B546F"/>
<path d="M1392.91 251.268C1387.83 251.074 1382.75 250.875 1377.68 250.875C1372.8 250.875 1368.12 251.074 1363.62 251.268C1359.13 251.462 1357.77 248.339 1357.77 246.193C1357.77 243.459 1359.72 240.724 1363.43 240.724H1363.62C1366.16 240.724 1366.36 240.923 1369.48 240.923C1371.43 240.923 1372.6 239.554 1372.6 237.604C1372.6 231.158 1372.8 223.742 1372.8 216.513C1372.8 206.362 1372.6 197.191 1372.41 193.48C1371.43 177.275 1361.08 170.442 1349.96 170.442C1336.29 170.442 1321.46 180.594 1320.87 196.014C1320.87 199.73 1320.68 205.582 1320.68 212.606C1320.68 219.834 1320.87 228.421 1320.87 237.602C1320.87 239.549 1321.85 240.92 1324.2 240.92C1327.11 240.92 1326.92 240.92 1329.66 240.721C1332.97 240.533 1335.51 242.867 1335.51 245.992C1335.51 248.538 1333.56 251.268 1329.85 251.268H1329.66C1324.58 251.074 1319.31 250.875 1314.43 250.875C1309.55 250.875 1304.67 251.074 1300.18 251.268C1295.69 251.462 1294.33 248.339 1294.33 246.193C1294.33 243.459 1296.27 240.724 1299.98 240.724H1300.18C1302.72 240.724 1303.3 240.923 1306.43 240.923C1308.38 240.923 1309.55 239.753 1309.55 237.604C1309.75 221.789 1309.94 197.194 1309.94 173.763C1309.94 157.168 1309.75 141.353 1309.75 129.642C1309.75 124.568 1308.18 121.835 1303.11 121.642C1301.36 121.642 1301.36 121.642 1298.81 121.833H1298.62C1295.11 121.833 1293.15 119.095 1293.15 116.366C1293.15 113.047 1294.72 110.511 1303.11 110.511C1304.67 110.511 1306.43 110.708 1307.98 110.899C1317.16 111.875 1321.26 117.732 1321.26 125.735V136.865C1321.26 152.678 1321.07 170.246 1321.07 172.983C1321.07 173.564 1321.26 173.957 1321.46 173.957C1321.65 173.957 1321.85 173.763 1322.24 173.371C1329.07 164.585 1340.2 160.094 1351.13 160.094C1367.34 160.094 1382.95 170.052 1383.73 191.334C1383.93 199.534 1384.13 221.983 1384.13 237.405C1384.13 239.551 1385.1 240.923 1387.44 240.923C1390.37 240.923 1390.18 240.724 1392.91 240.724H1393.1C1396.81 240.724 1398.77 243.265 1398.77 245.995C1398.77 248.735 1396.81 251.271 1393.1 251.271H1392.91V251.268Z" fill="#0B546F"/>
<path d="M1428.63 253.027C1421.99 253.027 1419.26 248.538 1419.26 243.459C1419.26 237.018 1424.72 234.089 1428.82 234.089C1435.85 234.089 1438.58 239.941 1438.58 243.265C1438.58 248.339 1434.48 253.027 1428.63 253.027Z" fill="#0B546F"/>
<path d="M1499.49 251.462C1494.22 251.268 1488.35 251.074 1482.89 251.074C1477.42 251.074 1471.96 251.268 1467.27 251.462C1466.5 251.462 1461.23 251.661 1461.23 245.992C1461.23 243.263 1463.17 240.533 1467.08 240.533H1467.27C1468.83 240.533 1470.01 240.721 1470.98 240.721C1474.1 240.721 1477.81 240.721 1477.81 237.016C1478.01 219.837 1478.2 183.913 1478.2 156.19V130.226C1478.2 124.371 1477.03 121.836 1471.76 121.642C1470 121.642 1470 121.642 1467.46 121.836H1467.07C1463.56 121.836 1461.99 119.294 1461.99 116.559C1461.99 113.634 1463.95 110.708 1467.66 110.708H1473.72C1485.63 110.708 1489.73 117.928 1489.73 126.515V127.106C1489.33 148.189 1489.14 192.311 1489.14 220.617V237.016C1489.14 240.138 1491.68 240.533 1497.14 240.533H1499.48H1499.68C1503.58 240.533 1505.53 243.263 1505.53 245.992C1505.53 248.732 1503.58 251.462 1499.68 251.462H1499.49Z" fill="#0B546F"/>
<path d="M1583.82 239.164C1583.63 238.575 1583.43 238.188 1583.04 238.188C1582.85 238.188 1582.45 238.381 1582.25 238.771C1576.4 248.146 1563.91 253.804 1552.58 253.804C1532.87 253.804 1520.96 240.336 1520.96 226.866C1520.96 217.105 1527.4 207.147 1541.85 202.658C1553.95 198.953 1569.76 196.019 1577.96 194.653C1580.3 194.26 1581.09 193.677 1581.09 192.31C1581.09 191.334 1581.28 190.164 1581.28 189.188C1581.28 178.45 1576.79 170.052 1560.97 170.052C1550.43 170.052 1542.62 174.543 1538.13 179.421C1536.96 180.788 1535.4 181.376 1534.04 181.376C1531.11 181.376 1528.57 179.23 1528.57 176.103C1528.57 168.684 1544.97 160.291 1561.75 160.291C1579.91 160.291 1592.21 168.296 1592.21 190.162C1592.21 191.915 1592.21 193.674 1592.02 195.626C1591.43 202.062 1591.04 212.213 1591.04 219.641C1591.04 233.891 1592.4 238.573 1600.22 241.313C1602.56 242.09 1603.53 244.236 1603.53 246.183C1603.53 248.918 1601.58 251.658 1598.27 251.658C1592.61 251.663 1585.58 246.387 1583.82 239.164ZM1580.89 209.293V206.757C1580.89 205.192 1580.31 204.605 1578.94 204.605H1578.35C1547.71 209.492 1531.5 213.391 1531.5 227.055C1531.5 235.259 1539.31 243.459 1552.39 243.459C1562.35 243.459 1580.89 239.363 1580.89 209.293Z" fill="#0B546F"/>
<mask id="mask0" mask-type="alpha" maskUnits="userSpaceOnUse" x="88" y="88" width="210" height="210">
<path d="M297.711 197.549C295.293 255.285 246.529 300.131 188.792 297.71C131.056 295.295 86.2122 246.528 88.6299 188.791C91.0496 131.058 139.814 86.2118 197.552 88.6301C255.287 91.0492 300.132 139.814 297.711 197.549Z" fill="#606060"/>
</mask>
<g mask="url(#mask0)">
<path d="M297.711 197.549C295.293 255.285 246.529 300.131 188.792 297.71C131.056 295.295 86.2122 246.528 88.6299 188.791C91.0496 131.058 139.814 86.2118 197.552 88.6301C255.287 91.0492 300.132 139.814 297.711 197.549Z" fill="#606060"/>
<path opacity="0.6" d="M297.66 197.582C295.239 255.315 246.477 300.162 188.741 297.741C131.005 295.326 86.1592 246.558 88.5783 188.825C90.9966 131.089 139.762 86.2452 197.497 88.6606C255.235 91.0797 300.074 139.847 297.66 197.582Z" fill="#91E5DF"/>
<path opacity="0.71" d="M163.942 223.889L143.587 169.668L251.526 203.495L163.942 223.889Z" fill="white"/>
<path opacity="0.6" d="M143.585 169.668L211.037 149.534L251.524 203.495L143.585 169.668Z" fill="#91E5DF"/>
<path d="M106.445 188.34L143.587 169.67L163.942 223.889L106.445 188.34Z" fill="#FFDB8A"/>
<path opacity="0.6" d="M94.4467 158.31L143.587 169.668L106.445 188.34L94.4467 158.31Z" fill="#EAE068"/>
<path opacity="0.71" d="M88.0127 235.653L106.437 188.522L110.143 256.945L88.0127 235.653Z" fill="#C99012"/>
<path d="M110.143 256.945L106.066 188.298L163.942 223.889L110.143 256.945Z" fill="#FFB600"/>
<path d="M141.274 284.158L92.3732 257.095L206.568 256.143L141.274 284.158Z" fill="#FFB600"/>
<path opacity="0.6" d="M163.942 223.889L110.143 256.945L206.568 256.143L163.942 223.889Z" fill="#AA5F13"/>
<path opacity="0.2" d="M206.568 256.143L251.526 203.495L293.466 222.919L206.568 256.143Z" fill="black"/>
<path opacity="0.63" d="M251.613 203.608L206.568 256.143L163.942 223.884L251.613 203.608Z" fill="#EFAD45"/>
<path d="M251.526 203.495C252.894 187.885 254.135 172.266 255.247 156.64C256.324 141.504 257.286 126.357 258.121 111.205C283.481 131.49 291.554 149.006 295.591 172.161C299.11 192.32 298.415 216.125 293.468 222.831C279.49 216.385 265.508 209.941 251.526 203.495Z" fill="#08546E"/>
<path opacity="0.2" d="M206.568 256.143L294.571 222.497L247.572 360.58L206.568 256.143Z" fill="#FFDF00"/>
<path opacity="0.18" d="M154.817 95.8082L244.468 51.1898L211.001 149.534L154.817 95.8082Z" fill="#C9F2EF"/>
<path opacity="0.3" d="M154.817 95.8082L210.692 149.693L143.585 169.668L154.817 95.8082Z" fill="#4CD8CA"/>
<path d="M234.77 79.6821L258.12 111.205L211.034 149.534L234.77 79.6821Z" fill="#57ADA3"/>
<path opacity="0.6" d="M245.69 355.787L141.36 284.158L206.568 256.143L245.69 355.787Z" fill="#D8761D"/>
<path d="M154.451 239.184C152.953 239.184 151.56 238.418 150.73 237.148C149.911 235.899 149.783 234.327 150.388 232.949L173.99 179.012C174.461 177.934 175.527 177.232 176.709 177.232C177.454 177.232 178.169 177.513 178.717 178.019L209.292 206.21C210.05 206.909 210.42 207.935 210.287 208.953C210.152 209.976 209.526 210.871 208.616 211.348L156.52 238.664C155.866 239.009 155.169 239.184 154.451 239.184ZM177.197 182.542L154.374 234.698C154.366 234.774 154.42 234.825 154.45 234.83L205.11 208.277L177.197 182.542Z" fill="white"/>
<path d="M207.907 211.081C207.143 211.081 206.416 210.799 205.856 210.28L175.058 181.887C174.337 181.221 173.98 180.237 174.109 179.263C174.239 178.287 174.835 177.434 175.707 176.978L231.792 147.573C232.229 147.345 232.715 147.222 233.202 147.222C234.224 147.222 235.171 147.739 235.735 148.605C236.295 149.457 236.384 150.527 235.972 151.47L210.682 209.268C210.198 210.372 209.109 211.081 207.907 211.081ZM179.392 179.962L207.438 205.821L230.474 153.178L179.392 179.962Z" fill="white"/>
</g>
</g>
<defs>
<clipPath id="clip0">
<path d="M0 0H1702.72V330H0V0Z" fill="white"/>
</clipPath>
</defs>
</svg>
