<svg width="305" height="305" viewBox="0 0 305 305" fill="none" xmlns="http://www.w3.org/2000/svg">
<mask id="mask0" mask-type="alpha" maskUnits="userSpaceOnUse" x="0" y="0" width="305" height="305">
<path d="M304.826 158.861C301.302 242.999 230.239 308.352 146.1 304.824C61.9623 301.304 -3.38712 230.237 0.136018 146.099C3.66233 61.9656 74.7261 -3.38811 158.866 0.13609C243.002 3.66135 308.354 74.7251 304.826 158.861Z" fill="#606060"/>
</mask>
<g mask="url(#mask0)">
<path d="M304.826 158.861C301.302 242.999 230.239 308.352 146.1 304.824C61.9623 301.304 -3.38712 230.237 0.136018 146.099C3.66233 61.9656 74.7261 -3.38811 158.866 0.13609C243.002 3.66135 308.354 74.7251 304.826 158.861Z" fill="#606060"/>
<path opacity="0.6" d="M304.752 158.91C301.224 243.043 230.163 308.397 146.026 304.869C61.8883 301.35 -3.4644 230.282 0.0608542 146.147C3.58505 62.01 74.6499 -3.33945 158.786 0.180517C242.926 3.70577 308.27 74.7727 304.752 158.91Z" fill="#91E5DF"/>
<path opacity="0.71" d="M109.887 197.246L80.2245 118.231L237.522 167.526L109.887 197.246Z" fill="white"/>
<path opacity="0.6" d="M80.2213 118.231L178.517 88.8896L237.518 167.526L80.2213 118.231Z" fill="#91E5DF"/>
<path d="M26.0983 145.441L80.2245 118.234L109.887 197.246L26.0983 145.441Z" fill="#FFDB8A"/>
<path opacity="0.6" d="M8.61273 101.679L80.2245 118.231L26.0983 145.441L8.61273 101.679Z" fill="#EAE068"/>
<path opacity="0.71" d="M-0.763306 214.39L26.0856 145.706L31.4867 245.418L-0.763306 214.39Z" fill="#C99012"/>
<path d="M31.4867 245.417L25.5449 145.38L109.887 197.246L31.4867 245.417Z" fill="#FFB600"/>
<path d="M76.8537 285.075L5.59106 245.636L172.005 244.249L76.8537 285.075Z" fill="#FFB600"/>
<path opacity="0.6" d="M109.887 197.246L31.4866 245.417L172.005 244.249L109.887 197.246Z" fill="#AA5F13"/>
<path opacity="0.2" d="M172.005 244.249L237.522 167.526L298.639 195.832L172.005 244.249Z" fill="black"/>
<path opacity="0.63" d="M237.649 167.692L172.005 244.249L109.887 197.238L237.649 167.692Z" fill="#EFAD45"/>
<path d="M237.522 167.527C239.515 144.778 241.324 122.017 242.944 99.2453C244.513 77.1881 245.915 55.114 247.131 33.0336C284.088 62.5951 295.853 88.1205 301.737 121.863C306.864 151.242 305.852 185.932 298.643 195.704C278.273 186.311 257.898 176.921 237.522 167.527Z" fill="#08546E"/>
<path opacity="0.2" d="M172.005 244.249L300.249 195.218L231.76 396.443L172.005 244.249Z" fill="#FFDF00"/>
<path opacity="0.18" d="M96.5886 10.5966L227.236 -54.4249L178.465 88.8896L96.5886 10.5966Z" fill="#C9F2EF"/>
<path opacity="0.3" d="M96.5886 10.5966L178.015 89.1224L80.2213 118.231L96.5886 10.5966Z" fill="#4CD8CA"/>
<path d="M213.103 -12.9037L247.131 33.0336L178.514 88.8896L213.103 -12.9037Z" fill="#57ADA3"/>
<path opacity="0.6" d="M229.017 389.459L76.9785 285.075L172.005 244.249L229.017 389.459Z" fill="#D8761D"/>
<path d="M96.0553 219.535C93.8727 219.535 91.8435 218.419 90.6331 216.568C89.4397 214.748 89.2535 212.458 90.1348 210.45L124.529 131.848C125.216 130.277 126.77 129.254 128.493 129.254C129.578 129.254 130.619 129.664 131.418 130.4L175.975 171.483C177.079 172.502 177.619 173.997 177.424 175.481C177.228 176.971 176.315 178.275 174.99 178.971L99.0717 218.777C98.1174 219.281 97.1028 219.535 96.0553 219.535ZM129.202 136.992L95.9443 212.997C95.9316 213.108 96.0109 213.183 96.0543 213.191L169.88 174.494L129.202 136.992Z" fill="white"/>
<path d="M173.956 178.582C172.843 178.582 171.784 178.17 170.968 177.414L126.087 136.037C125.035 135.067 124.516 133.632 124.703 132.214C124.892 130.791 125.761 129.547 127.031 128.884L208.763 86.032C209.4 85.7008 210.108 85.5209 210.818 85.5209C212.307 85.5209 213.687 86.2742 214.51 87.5364C215.326 88.7775 215.455 90.337 214.855 91.7113L178 175.94C177.295 177.548 175.708 178.582 173.956 178.582ZM132.402 133.233L173.273 170.916L206.843 94.2008L132.402 133.233Z" fill="white"/>
</g>
</svg>
