<svg width="1800" height="782" viewBox="0 0 1800 782" fill="none" xmlns="http://www.w3.org/2000/svg">
<path d="M111.333 297.433C111.228 297.395 111.124 297.355 111.017 297.31C106.181 295.348 103.852 289.833 105.816 284.998C113.468 266.148 128.555 238.82 156.95 215.662C188.673 189.79 222.235 180.903 244.798 178.006C249.978 177.339 254.715 180.998 255.377 186.175C256.04 191.353 252.382 196.091 247.207 196.753C227.081 199.338 197.163 207.257 168.895 230.311C143.598 250.943 130.153 275.305 123.329 292.11C121.412 296.843 116.091 299.174 111.333 297.433Z" fill="white"/>
<path d="M59.866 282.696C59.759 282.656 59.657 282.618 59.55 282.574C54.714 280.61 52.387 275.096 54.349 270.261C64.735 244.687 85.196 207.613 123.716 176.198C166.755 141.101 212.281 129.048 242.894 125.117C248.076 124.45 252.81 128.113 253.472 133.287C254.139 138.465 250.479 143.203 245.302 143.865C217.132 147.482 175.242 158.57 135.664 190.845C100.242 219.732 81.418 253.842 71.865 277.37C69.941 282.104 64.623 284.436 59.866 282.696Z" fill="white"/>
<path d="M284.532 189.83C282.752 194.7 277.358 197.205 272.487 195.423C267.617 193.642 265.113 188.248 266.894 183.378C268.676 178.505 274.068 176.002 278.94 177.782C283.812 179.565 286.315 184.957 284.532 189.83Z" fill="white"/>
<path d="M279.58 137.47C277.798 142.341 272.406 144.847 267.536 143.063C262.666 141.283 260.16 135.89 261.941 131.018C263.723 126.148 269.117 123.644 273.988 125.425C278.857 127.208 281.361 132.601 279.58 137.47Z" fill="white"/>
<path d="M305.927 140.861C304.144 145.733 298.752 148.236 293.882 146.455C289.012 144.673 286.507 139.281 288.289 134.41C290.07 129.542 295.464 127.035 300.334 128.816C305.204 130.598 307.709 135.993 305.927 140.861Z" fill="white"/>
<path d="M113.585 318.587C111.801 323.458 106.411 325.962 101.54 324.18C96.67 322.397 94.165 317.006 95.946 312.135C97.728 307.265 103.121 304.759 107.991 306.541C112.864 308.32 115.366 313.715 113.585 318.587Z" fill="white"/>
<path d="M62.4179 303.037C60.6359 307.907 55.245 310.412 50.373 308.63C45.502 306.85 42.9979 301.455 44.7809 296.586C46.5609 291.714 51.9529 289.212 56.8239 290.991C61.6969 292.774 64.2009 298.165 62.4179 303.037Z" fill="white"/>
<path d="M54.927 328.129C53.146 332.999 47.752 335.504 42.884 333.722C38.014 331.94 35.508 326.547 37.288 321.678C39.07 316.809 44.465 314.302 49.335 316.084C54.204 317.865 56.709 323.26 54.927 328.129Z" fill="white"/>
<path d="M779.021 142.932C779.021 125.241 793.362 110.899 811.053 110.899H881.076C898.766 110.899 913.107 125.241 913.107 142.932V175.708C913.107 193.398 898.766 207.739 881.076 207.739H811.053C793.362 207.739 779.021 193.398 779.021 175.708V142.932ZM811.054 120.335C798.575 120.335 788.456 130.453 788.456 142.932V175.708C788.456 188.188 798.574 198.304 811.054 198.304H881.077C893.556 198.304 903.672 188.188 903.672 175.708V142.932C903.672 130.453 893.556 120.335 881.077 120.335H811.054Z" fill="white"/>
<path d="M923.782 133.744C930.504 133.744 935.954 139.195 935.954 145.916V175.208C935.954 181.929 930.504 187.379 923.782 187.379H915.844C909.122 187.379 903.671 181.929 903.671 175.208V145.916C903.671 139.195 909.122 133.744 915.844 133.744H923.782ZM926.518 145.916C926.518 144.405 925.292 143.181 923.783 143.181H915.845C914.334 143.181 913.11 144.406 913.11 145.916V175.208C913.11 176.719 914.335 177.943 915.845 177.943H923.783C925.293 177.943 926.518 176.718 926.518 175.208V145.916Z" fill="white"/>
<path d="M776.286 133.744C783.007 133.744 788.456 139.195 788.456 145.916V175.208C788.456 181.929 783.007 187.379 776.286 187.379H768.351C761.627 187.379 756.178 181.929 756.178 175.208V145.916C756.178 139.195 761.628 133.744 768.351 133.744H776.286ZM779.021 145.916C779.021 144.405 777.795 143.181 776.285 143.181H768.35C766.838 143.181 765.612 144.406 765.612 145.916V175.208C765.612 176.719 766.838 177.943 768.35 177.943H776.285C777.795 177.943 779.021 176.718 779.021 175.208V145.916Z" fill="white"/>
<path d="M841.594 116.113V92.275H851.031V116.113H841.594Z" fill="white"/>
<path d="M846.562 90.43C848.421 90.43 849.927 88.922 849.927 87.062C849.927 85.203 848.421 83.695 846.562 83.695C844.701 83.695 843.194 85.202 843.194 87.062C843.194 88.922 844.701 90.43 846.562 90.43ZM846.562 99.727C853.556 99.727 859.223 94.057 859.223 87.062C859.223 80.068 853.556 74.398 846.562 74.398C839.567 74.398 833.898 80.068 833.898 87.062C833.898 94.057 839.567 99.727 846.562 99.727Z" fill="white"/>
<path d="M814.529 166.769C816.722 166.769 818.503 164.992 818.503 162.797C818.503 160.602 816.722 158.824 814.529 158.824C812.335 158.824 810.557 160.601 810.557 162.797C810.557 164.993 812.334 166.769 814.529 166.769ZM814.529 176.205C821.936 176.205 827.939 170.202 827.939 162.796C827.939 155.39 821.936 149.388 814.529 149.388C807.123 149.388 801.121 155.39 801.121 162.796C801.121 170.202 807.123 176.205 814.529 176.205Z" fill="white"/>
<path d="M878.594 166.769C880.786 166.769 882.565 164.992 882.565 162.797C882.565 160.602 880.786 158.824 878.594 158.824C876.4 158.824 874.621 160.601 874.621 162.797C874.621 164.993 876.4 166.769 878.594 166.769ZM878.594 176.205C885.999 176.205 892.002 170.202 892.002 162.796C892.002 155.39 885.999 149.388 878.594 149.388C871.189 149.388 865.183 155.39 865.183 162.796C865.184 170.202 871.189 176.205 878.594 176.205Z" fill="white"/>
<path d="M476.064 541.835C476.293 522.134 492.452 506.35 512.155 506.581L590.138 507.493C609.839 507.723 625.624 523.883 625.392 543.585L624.965 580.088C624.734 599.788 608.576 615.573 588.873 615.343L510.889 614.43C491.189 614.199 475.405 598.038 475.634 578.338L476.064 541.835ZM512.031 517.088C498.133 516.927 486.733 528.06 486.572 541.959L486.143 578.461C485.981 592.359 497.116 603.758 511.013 603.92L588.996 604.832C602.895 604.997 614.293 593.862 614.455 579.964L614.884 543.46C615.045 529.564 603.91 518.164 590.013 518.001L512.031 517.088Z" fill="white"/>
<path d="M637.399 533.491C644.884 533.58 650.882 539.72 650.795 547.207L650.413 579.826C650.325 587.314 644.186 593.31 636.698 593.222L627.861 593.12C620.375 593.032 614.376 586.891 614.464 579.405L614.845 546.783C614.934 539.298 621.074 533.299 628.56 533.387L637.399 533.491ZM640.288 547.084C640.307 545.4 638.959 544.02 637.274 544.001L628.438 543.897C626.754 543.877 625.374 545.224 625.354 546.909L624.972 579.53C624.951 581.212 626.301 582.593 627.984 582.611L636.822 582.715C638.505 582.736 639.885 581.387 639.904 579.704L640.288 547.084Z" fill="white"/>
<path d="M473.136 531.568C480.621 531.656 486.62 537.796 486.532 545.282L486.149 577.903C486.062 585.388 479.922 591.386 472.435 591.299L463.597 591.196C456.112 591.108 450.113 584.967 450.201 577.481L450.581 544.86C450.67 537.375 456.81 531.377 464.296 531.464L473.136 531.568ZM476.024 545.158C476.042 543.478 474.695 542.095 473.011 542.076L464.172 541.972C462.49 541.951 461.11 543.302 461.09 544.985L460.708 577.604C460.688 579.287 462.036 580.668 463.719 580.688L472.558 580.79C474.242 580.811 475.622 579.462 475.641 577.78L476.024 545.158Z" fill="white"/>
<path d="M546.101 512.784L546.409 486.238L556.92 486.362L556.608 512.908L546.101 512.784Z" fill="white"/>
<path d="M551.966 484.244C554.038 484.27 555.737 482.61 555.759 480.539C555.785 478.469 554.125 476.769 552.054 476.745C549.984 476.723 548.285 478.381 548.26 480.452C548.237 482.522 549.896 484.221 551.966 484.244ZM551.845 494.6C559.633 494.691 566.023 488.452 566.113 480.661C566.206 472.873 559.966 466.484 552.175 466.392C544.388 466.302 537.997 472.542 537.907 480.33C537.816 488.12 544.055 494.508 551.845 494.6Z" fill="white"/>
<path d="M515.296 568.846C517.739 568.874 519.744 566.916 519.774 564.473C519.801 562.03 517.844 560.027 515.4 559.997C512.956 559.969 510.951 561.927 510.924 564.369C510.896 566.813 512.852 568.817 515.296 568.846ZM515.174 579.354C523.421 579.451 530.184 572.844 530.282 564.597C530.38 556.349 523.77 549.584 515.522 549.49C507.277 549.392 500.513 556 500.415 564.247C500.319 572.494 506.926 579.258 515.174 579.354Z" fill="white"/>
<path d="M586.643 569.683C589.087 569.709 591.091 567.753 591.119 565.31C591.148 562.864 589.19 560.86 586.747 560.833C584.303 560.805 582.3 562.762 582.271 565.204C582.242 567.65 584.201 569.653 586.643 569.683ZM586.52 580.189C594.768 580.288 601.532 573.677 601.629 565.431C601.725 557.185 595.118 550.42 586.871 550.324C578.623 550.227 571.857 556.836 571.764 565.083C571.666 573.329 578.275 580.095 586.52 580.189Z" fill="white"/>
<path d="M1672.45 474.855C1674.13 473.114 1676.63 472.435 1678.92 473.1L1795.57 506.986C1798.19 507.744 1799.97 510.077 1800 512.779C1800.03 515.478 1798.31 517.937 1795.73 518.881L1758.79 532.344L1785.23 552.932C1787.82 554.953 1788.32 558.654 1786.4 561.393L1775.94 576.184C1774.96 577.593 1773.42 578.558 1771.72 578.854C1770.03 579.151 1768.3 578.755 1766.92 577.757L1735.88 555.118L1722.64 592.558C1721.73 595.089 1719.32 596.828 1716.63 596.888C1713.93 596.944 1711.53 595.315 1710.65 592.822L1671 481.322C1670.22 479.1 1670.78 476.597 1672.45 474.855ZM1687.16 488.648L1716.68 571.661L1726.81 543.046C1727.48 541.14 1729.03 539.646 1730.98 539.024C1732.92 538.406 1735.03 538.735 1736.64 539.912L1769.39 563.798L1772.61 559.258L1741.94 535.362C1740.14 533.968 1739.28 531.711 1739.69 529.459C1740.1 527.21 1741.69 525.321 1743.86 524.529L1773.49 513.728L1687.16 488.648Z" fill="white"/>
<path d="M611.416 205.025C594.23 205.025 580.251 191.046 580.251 173.862C580.251 156.675 594.23 142.698 611.416 142.698C628.603 142.698 642.582 156.675 642.582 173.862C642.582 191.046 628.603 205.025 611.416 205.025ZM611.416 158.015C602.678 158.015 595.566 165.123 595.566 173.863C595.566 182.6 602.677 189.711 611.416 189.711C620.156 189.711 627.264 182.6 627.264 173.863C627.264 165.123 620.156 158.015 611.416 158.015Z" fill="white"/>
<path d="M611.421 274.851C607.192 274.851 603.763 271.427 603.763 267.195L603.755 202.318C603.753 198.089 607.183 194.661 611.413 194.657C615.642 194.657 619.07 198.086 619.07 202.318L619.076 267.193C619.08 271.425 615.651 274.851 611.421 274.851Z" fill="white"/>
<path d="M780.325 276.945C780.306 276.945 780.289 276.945 780.275 276.945L582.702 275.685C578.472 275.66 575.067 272.207 575.091 267.977C575.12 263.747 578.563 260.342 582.799 260.365L780.371 261.626C784.602 261.655 788.008 265.104 787.982 269.334C787.953 273.547 784.529 276.945 780.325 276.945Z" fill="white"/>
<path d="M670.82 137.682C653.635 137.682 639.655 123.703 639.655 106.517C639.655 89.33 653.634 75.351 670.82 75.351C688.004 75.351 701.985 89.33 701.985 106.517C701.984 123.702 688 137.682 670.82 137.682ZM670.82 90.669C662.08 90.669 654.971 97.777 654.971 106.517C654.971 115.256 662.08 122.365 670.82 122.365C679.558 122.365 686.668 115.256 686.668 106.517C686.667 97.778 679.558 90.669 670.82 90.669Z" fill="white"/>
<path d="M670.82 184.608C666.59 184.608 663.162 181.179 663.162 176.949L663.158 134.973C663.157 130.744 666.586 127.313 670.814 127.312C675.045 127.312 678.471 130.739 678.474 134.971L678.478 176.946C678.478 181.177 675.049 184.606 670.82 184.608Z" fill="white"/>
<path d="M694.327 274.842C690.098 274.843 686.67 271.417 686.67 267.186L686.662 202.309C686.662 198.079 690.089 194.65 694.318 194.65C698.549 194.649 701.979 198.077 701.979 202.309L701.986 267.184C701.988 271.414 698.559 274.842 694.327 274.842Z" fill="white"/>
<path d="M694.324 209.966C692.264 209.966 690.212 209.141 688.703 207.514L665.202 182.153C662.327 179.052 662.512 174.206 665.615 171.329C668.718 168.454 673.562 168.641 676.439 171.741L699.94 197.102C702.815 200.203 702.629 205.05 699.527 207.926C698.055 209.29 696.187 209.966 694.324 209.966Z" fill="white"/>
<path d="M987.528 86.905C975.989 86.905 965.097 82.53 956.861 74.579C948.617 66.621 943.966 55.985 943.774 44.631C943.581 33.149 947.949 22.281 956.078 14.027C964.206 5.77299 975.12 1.124 986.812 0.930996C998.63 0.735996 1009.81 5.131 1018.22 13.251C1026.46 21.209 1031.11 31.844 1031.31 43.2C1031.5 54.68 1027.13 65.548 1019 73.803C1010.87 82.059 999.958 86.706 988.267 86.898C988.021 86.903 987.775 86.905 987.528 86.905ZM987.552 15.327C987.389 15.327 987.221 15.33 987.058 15.333C979.282 15.459 972.026 18.552 966.62 24.04C961.217 29.526 958.309 36.753 958.439 44.388C958.701 59.888 971.753 72.496 987.531 72.496C987.693 72.496 987.859 72.496 988.025 72.493C995.797 72.366 1003.06 69.275 1008.46 63.787C1013.87 58.299 1016.77 51.074 1016.64 43.436C1016.38 27.94 1003.33 15.327 987.552 15.327Z" fill="white"/>
<path d="M863.396 287.315C854.407 287.463 846.999 280.298 846.848 271.309C846.697 262.32 853.865 254.911 862.854 254.762C871.845 254.616 879.253 261.779 879.401 270.77C879.551 279.756 872.386 287.164 863.396 287.315Z" fill="white"/>
<path d="M1044.88 190.806C1040.2 190.806 1036.39 187.038 1036.34 182.351L1035.91 140.718C1035.87 136.001 1039.65 132.138 1044.37 132.09C1044.4 132.09 1044.43 132.09 1044.46 132.09C1049.14 132.09 1052.95 135.854 1052.99 140.545L1053.42 182.177C1053.47 186.896 1049.69 190.758 1044.97 190.806C1044.94 190.806 1044.91 190.806 1044.88 190.806Z" fill="white"/>
<path d="M1046.35 279.583C1041.68 279.583 1037.87 275.814 1037.82 271.127L1037.39 229.496C1037.34 224.779 1041.12 220.913 1045.84 220.868C1045.87 220.865 1045.9 220.865 1045.93 220.865C1050.61 220.865 1054.42 224.632 1054.47 229.32L1054.9 270.952C1054.95 275.669 1051.16 279.533 1046.44 279.58C1046.41 279.583 1046.39 279.583 1046.35 279.583Z" fill="white"/>
<path d="M1070.24 213.126C1065.56 213.126 1061.75 209.358 1061.7 204.67C1061.65 199.952 1065.44 196.087 1070.15 196.04L1111.79 195.613C1111.82 195.613 1111.85 195.613 1111.88 195.613C1116.55 195.613 1120.37 199.381 1120.42 204.069C1120.46 208.786 1116.68 212.647 1111.96 212.697L1070.33 213.124C1070.3 213.126 1070.27 213.126 1070.24 213.126Z" fill="white"/>
<path d="M976.525 214.167C971.847 214.167 968.031 210.398 967.985 205.712C967.937 200.993 971.722 197.129 976.437 197.084L1018.07 196.657C1018.1 196.657 1018.13 196.657 1018.16 196.657C1022.84 196.657 1026.66 200.422 1026.7 205.111C1026.75 209.83 1022.96 213.691 1018.25 213.739L976.617 214.167C976.583 214.167 976.554 214.167 976.525 214.167Z" fill="white"/>
<path d="M1220.39 48.289C1249.4 48.289 1278.42 48.286 1307.43 48.292C1318.76 48.294 1326.6 55.832 1326.68 67.173C1326.81 86.157 1326.79 105.147 1326.68 124.13C1326.62 135.119 1318.71 142.83 1307.75 142.851C1292.13 142.883 1276.52 142.93 1260.91 142.836C1248.35 142.758 1237.05 138.882 1227.13 131.107C1222.64 127.579 1218.34 127.514 1213.87 130.928C1203.39 138.912 1191.6 142.926 1178.4 142.876C1163.52 142.815 1148.64 142.868 1133.77 142.858C1121.71 142.851 1114.08 135.228 1114.08 123.133C1114.06 104.888 1114.07 86.642 1114.07 68.396C1114.08 55.732 1121.5 48.292 1134.09 48.29C1162.86 48.287 1191.62 48.289 1220.39 48.289ZM1220.66 60.551C1191.57 60.551 1162.48 60.548 1133.4 60.551C1128.38 60.553 1126.11 62.764 1126.1 67.676C1126.09 86.411 1126.09 105.147 1126.1 123.883C1126.11 128.549 1128.35 130.812 1133.07 130.819C1148.85 130.845 1164.63 130.843 1180.4 130.817C1189.84 130.802 1198.28 127.793 1205.8 122.161C1215.58 114.841 1224.93 114.777 1234.75 121.939C1241.79 127.078 1249.58 130.557 1258.38 130.678C1275.06 130.907 1291.74 130.828 1308.42 130.792C1312.43 130.784 1314.68 128.28 1314.69 124.164C1314.7 105.429 1314.7 86.694 1314.69 67.956C1314.69 62.668 1312.54 60.548 1307.19 60.548C1278.35 60.55 1249.5 60.551 1220.66 60.551Z" fill="white"/>
<path d="M1298.56 101.707C1298.34 101.707 1298.11 101.693 1297.88 101.67C1294.58 101.296 1292.21 98.318 1292.58 95.021C1292.79 93.166 1293.14 86.724 1288.83 81.625C1287.16 79.652 1285.04 78.124 1282.52 77.087C1279.45 75.824 1277.99 72.31 1279.25 69.24C1280.52 66.169 1284.03 64.706 1287.1 65.969C1291.35 67.721 1295.13 70.452 1298.01 73.864C1305.23 82.398 1304.97 92.449 1304.53 96.372C1304.18 99.441 1301.58 101.707 1298.56 101.707Z" fill="white"/>
<path d="M1501.68 133.491C1495.13 166.589 1462.88 188.187 1429.79 181.641C1396.69 175.098 1375.09 142.848 1381.64 109.752C1388.17 76.655 1420.42 55.056 1453.52 61.602C1486.61 68.146 1508.22 100.395 1501.68 133.491ZM1395.46 112.488C1390.42 137.959 1407.04 162.777 1432.52 167.813C1457.99 172.849 1482.81 156.228 1487.85 130.757C1492.88 105.288 1476.26 80.466 1450.78 75.43C1425.32 70.393 1400.51 87.018 1395.46 112.488Z" fill="white"/>
<path d="M1552.74 223.337C1552.41 225.009 1551.55 226.595 1550.19 227.823C1546.83 230.853 1541.65 230.586 1538.62 227.226L1483.13 165.671C1480.09 162.311 1480.37 157.133 1483.72 154.102C1487.08 151.075 1492.27 151.342 1495.29 154.704L1550.8 216.259C1552.6 218.254 1553.22 220.889 1552.74 223.337Z" fill="white"/>
<path d="M1568.51 201.162C1568.32 202.141 1567.95 203.1 1567.39 203.989C1564.93 207.797 1559.87 208.905 1556.07 206.467L1485.89 161.501C1482.09 159.059 1480.98 153.998 1483.42 150.188C1485.86 146.379 1490.93 145.27 1494.72 147.712L1564.9 192.675C1567.82 194.547 1569.15 197.955 1568.51 201.162Z" fill="white"/>
<path d="M1564.65 216.639C1564.37 217.999 1563.76 219.313 1562.77 220.434C1559.79 223.837 1554.61 224.183 1551.22 221.204L1501.84 177.982C1498.43 175.005 1498.08 169.831 1501.06 166.428C1504.04 163.026 1509.22 162.679 1512.62 165.659L1562.01 208.878C1564.29 210.875 1565.2 213.862 1564.65 216.639Z" fill="white"/>
<path d="M1568.42 208.57C1567.68 212.228 1566.12 216.34 1562.96 220.216C1557.01 227.505 1549.07 229.373 1545.91 229.84C1541.44 230.507 1537.28 227.415 1536.61 222.943C1535.95 218.468 1539.03 214.301 1543.52 213.639C1544.48 213.493 1547.88 212.792 1550.27 209.864C1553.27 206.177 1552.52 201.568 1552.42 201.052C1551.61 196.605 1554.55 192.337 1558.99 191.517C1563.45 190.695 1567.71 193.637 1568.54 198.082C1568.84 199.744 1569.36 203.768 1568.42 208.57Z" fill="white"/>
<path d="M1458.32 99.31C1458.27 99.573 1458.21 99.832 1458.13 100.09C1456.94 103.798 1452.99 105.85 1449.27 104.67C1446.73 103.865 1437.84 101.599 1429.47 106.231C1426.24 108.027 1423.5 110.586 1421.36 113.827C1419.2 117.071 1414.83 117.96 1411.59 115.806C1408.34 113.653 1407.45 109.28 1409.61 106.035C1412.97 100.962 1417.48 96.767 1422.64 93.903C1435.57 86.734 1448.56 89.65 1453.55 91.234C1457.01 92.335 1459.01 95.841 1458.32 99.31Z" fill="white"/>
<path d="M1234.43 261.539C1234.4 266.769 1230.3 270.986 1225.28 270.955C1220.26 270.923 1216.22 266.656 1216.25 261.424C1216.29 256.192 1220.38 251.976 1225.4 252.008C1230.42 252.04 1234.46 256.308 1234.43 261.539Z" fill="white"/>
<path d="M1251.65 301.158L1198.55 300.826C1185.03 300.742 1174.11 289.681 1174.2 276.172L1174.38 246.153C1174.47 232.643 1185.53 221.719 1199.04 221.803L1252.14 222.134C1265.65 222.218 1276.58 233.279 1276.49 246.791L1276.3 276.811C1276.22 290.32 1265.16 301.243 1251.65 301.158ZM1198.96 234.024C1192.19 233.981 1186.65 239.456 1186.6 246.229L1186.42 276.249C1186.38 283.021 1191.85 288.566 1198.62 288.608L1251.73 288.938C1258.5 288.979 1264.05 283.505 1264.09 276.732L1264.27 246.713C1264.31 239.939 1258.84 234.396 1252.07 234.355L1198.96 234.024Z" fill="white"/>
<path d="M1252.65 234.467C1252.51 234.466 1252.37 234.461 1252.22 234.45C1248.86 234.192 1246.34 231.256 1246.59 227.891C1246.99 222.779 1247.12 217.623 1246.99 212.565C1246.88 207.78 1246.48 201.645 1245.28 199.602C1243.44 196.456 1240.39 194.9 1238.17 193.769C1228.64 188.895 1218.31 192.168 1214.32 193.802C1210.98 195.167 1208.09 196.346 1206.53 198.941C1205.86 200.055 1205.35 203.841 1205.12 209.334C1204.93 214.045 1204.99 218.86 1205.3 223.64C1205.52 227.008 1202.96 229.914 1199.59 230.131C1196.23 230.348 1193.32 227.794 1193.1 224.426C1192.77 219.218 1192.71 213.971 1192.92 208.831C1193.32 199.035 1194.42 195.374 1196.06 192.641C1199.71 186.573 1205.48 184.213 1209.7 182.492C1215.25 180.219 1229.69 175.711 1243.73 182.887C1246.68 184.393 1252.17 187.196 1255.82 193.417C1257.65 196.536 1258.93 200.937 1259.21 212.265C1259.34 217.73 1259.2 223.301 1258.78 228.823C1258.53 232.042 1255.84 234.488 1252.65 234.467Z" fill="white"/>
<path d="M354.314 597.64C354.281 602.869 350.185 607.087 345.167 607.056C340.147 607.023 336.105 602.756 336.139 597.526C336.171 592.294 340.265 588.077 345.285 588.109C350.302 588.139 354.346 592.408 354.314 597.64Z" fill="white"/>
<path d="M371.533 637.258L318.43 636.927C304.919 636.843 293.997 625.782 294.081 612.273L294.268 582.254C294.352 568.743 305.413 557.819 318.921 557.904L372.027 558.235C385.535 558.319 396.458 569.38 396.375 582.891L396.187 612.911C396.102 626.421 385.042 637.343 371.533 637.258ZM318.844 570.124C312.072 570.083 306.527 575.557 306.485 582.33L306.297 612.349C306.256 619.122 311.732 624.666 318.505 624.71L371.609 625.038C378.381 625.08 383.926 619.605 383.968 612.834L384.155 582.814C384.196 576.04 378.721 570.497 371.949 570.456L318.844 570.124Z" fill="white"/>
<path d="M372.538 570.567C372.396 570.566 372.252 570.561 372.105 570.55C368.74 570.292 366.222 567.356 366.478 563.992C366.869 558.878 367.005 553.722 366.879 548.665C366.76 543.882 366.366 537.746 365.166 535.702C363.319 532.556 360.278 531.002 358.057 529.869C348.521 524.996 338.199 528.267 334.203 529.901C330.861 531.266 327.974 532.445 326.415 535.04C325.746 536.153 325.231 539.941 325.006 545.433C324.812 550.146 324.871 554.96 325.178 559.74C325.395 563.108 322.841 566.014 319.475 566.232C316.11 566.449 313.202 563.894 312.983 560.526C312.649 555.318 312.586 550.073 312.795 544.931C313.198 535.135 314.298 531.475 315.943 528.742C319.594 522.675 325.362 520.314 329.577 518.594C335.131 516.321 349.569 511.813 363.612 518.989C366.561 520.495 372.049 523.298 375.701 529.519C377.531 532.637 378.809 537.038 379.088 548.366C379.224 553.831 379.079 559.403 378.656 564.925C378.416 568.143 375.719 570.589 372.538 570.567Z" fill="white"/>
<path d="M1639.03 292.229C1633.9 297.646 1627.01 300.814 1619.61 301.149C1612.22 301.483 1605.15 298.941 1599.75 293.986C1594.27 288.974 1591.12 282.095 1590.85 274.613C1590.58 267.13 1593.26 259.938 1598.35 254.365C1603.51 248.728 1610.55 245.437 1618.1 245.097C1625.49 244.76 1632.56 247.304 1637.97 252.26C1643.44 257.27 1646.6 264.15 1646.86 271.633C1647.13 279.118 1644.45 286.305 1639.36 291.879C1639.25 292 1639.14 292.114 1639.03 292.229ZM1605.44 260.417C1605.37 260.493 1605.3 260.573 1605.22 260.65C1601.83 264.356 1600.06 269.138 1600.23 274.113C1600.4 279.089 1602.51 283.663 1606.16 286.995C1613.55 293.759 1625.26 293.235 1632.28 285.827C1632.34 285.75 1632.42 285.672 1632.48 285.594C1635.89 281.887 1637.66 277.108 1637.48 272.132C1637.31 267.156 1635.2 262.583 1631.56 259.25C1624.16 252.487 1612.46 253.009 1605.44 260.417Z" fill="white"/>
<path d="M1707.1 423.117C1703.17 427.402 1696.51 427.696 1692.23 423.772C1687.93 419.848 1687.65 413.192 1691.57 408.907C1695.5 404.621 1702.16 404.325 1706.44 408.252C1710.72 412.174 1711.02 418.83 1707.1 423.117Z" fill="white"/>
<path d="M1710.33 318.032C1710.33 321.056 1707.89 323.522 1704.86 323.552L1677.96 323.829C1674.91 323.859 1672.41 321.414 1672.38 318.366C1672.38 318.345 1672.38 318.326 1672.38 318.307C1672.38 315.282 1674.81 312.817 1677.85 312.788L1704.75 312.511C1707.8 312.479 1710.3 314.926 1710.33 317.976C1710.33 317.995 1710.33 318.015 1710.33 318.032Z" fill="white"/>
<path d="M1767.72 317.079C1767.72 320.1 1765.28 322.565 1762.25 322.596L1735.34 322.873C1732.29 322.904 1729.79 320.46 1729.76 317.41C1729.76 317.389 1729.76 317.371 1729.76 317.352C1729.76 314.328 1732.19 311.862 1735.22 311.831L1762.14 311.555C1765.19 311.526 1767.69 313.97 1767.7 317.019C1767.72 317.039 1767.72 317.059 1767.72 317.079Z" fill="white"/>
<path d="M1724.76 301.639C1724.76 304.661 1722.32 307.129 1719.29 307.159C1716.24 307.19 1713.74 304.743 1713.71 301.694L1713.44 274.785C1713.44 274.765 1713.44 274.747 1713.44 274.727C1713.44 271.703 1715.87 269.235 1718.9 269.206C1721.94 269.174 1724.45 271.623 1724.48 274.67L1724.76 301.581C1724.76 301.602 1724.76 301.62 1724.76 301.639Z" fill="white"/>
<path d="M1725.43 362.216C1725.43 365.239 1722.99 367.705 1719.96 367.734C1716.91 367.766 1714.41 365.321 1714.38 362.272L1714.11 335.361C1714.11 335.341 1714.11 335.322 1714.11 335.304C1714.11 332.279 1716.54 329.813 1719.57 329.784C1722.62 329.752 1725.12 332.198 1725.15 335.247L1725.43 362.157C1725.43 362.177 1725.43 362.197 1725.43 362.216Z" fill="white"/>
<path d="M1441.23 238.335C1441.25 238.39 1441.26 238.443 1441.28 238.5C1441.81 241.056 1440.42 243.488 1438.18 243.935C1429.46 245.672 1415.79 246.511 1400.21 240.642C1382.81 234.088 1371.02 222.285 1364.21 213.54C1362.64 211.533 1362.74 208.574 1364.43 206.933C1366.11 205.289 1368.76 205.583 1370.32 207.589C1376.4 215.389 1386.89 225.91 1402.41 231.752C1416.3 236.98 1428.48 236.232 1436.24 234.682C1438.43 234.244 1440.64 235.873 1441.23 238.335Z" fill="white"/>
<path d="M1449.12 263.902C1449.14 263.957 1449.16 264.01 1449.16 264.067C1449.7 266.622 1448.31 269.052 1446.08 269.499C1434.24 271.855 1415.7 272.996 1394.57 265.036C1370.95 256.141 1354.97 240.129 1345.71 228.266C1344.15 226.259 1344.24 223.301 1345.93 221.659C1347.62 220.014 1350.27 220.309 1351.83 222.317C1360.33 233.235 1375.04 247.965 1396.76 256.146C1416.2 263.466 1433.26 262.418 1444.14 260.248C1446.33 259.812 1448.53 261.439 1449.12 263.902Z" fill="white"/>
<path d="M1358.27 193.685C1360.47 193.154 1362.75 194.766 1363.37 197.288C1363.97 199.809 1362.68 202.284 1360.47 202.816C1358.27 203.347 1355.98 201.735 1355.38 199.213C1354.77 196.69 1356.06 194.217 1358.27 193.685Z" fill="white"/>
<path d="M1340.76 209.557C1342.96 209.026 1345.23 210.638 1345.84 213.159C1346.45 215.681 1345.17 218.156 1342.96 218.687C1340.76 219.218 1338.48 217.606 1337.87 215.084C1337.26 212.563 1338.56 210.088 1340.76 209.557Z" fill="white"/>
<path d="M1335.23 197.561C1337.43 197.029 1339.71 198.642 1340.31 201.164C1340.92 203.685 1339.63 206.16 1337.43 206.692C1335.23 207.223 1332.94 205.61 1332.33 203.089C1331.72 200.568 1333.02 198.092 1335.23 197.561Z" fill="white"/>
<path d="M1448.25 231.818C1450.45 231.286 1452.72 232.898 1453.33 235.42C1453.94 237.942 1452.66 240.417 1450.45 240.948C1448.25 241.479 1445.97 239.865 1445.36 237.346C1444.75 234.824 1446.05 232.349 1448.25 231.818Z" fill="white"/>
<path d="M1455.77 257.47C1457.97 256.938 1460.26 258.551 1460.87 261.073C1461.48 263.595 1460.18 266.07 1457.97 266.601C1455.77 267.132 1453.49 265.518 1452.88 262.997C1452.27 260.476 1453.56 258.001 1455.77 257.47Z" fill="white"/>
<path d="M1466.69 254.021C1468.9 253.49 1471.17 255.103 1471.78 257.623C1472.39 260.145 1471.1 262.621 1468.9 263.152C1466.69 263.684 1464.41 262.07 1463.8 259.548C1463.19 257.028 1464.49 254.553 1466.69 254.021Z" fill="white"/>
<path d="M1623.96 522.95C1622.23 522.95 1620.49 522.304 1619.16 521.002L1586.46 489.203C1583.74 486.555 1583.68 482.196 1586.33 479.472C1588.98 476.749 1593.34 476.687 1596.06 479.338L1628.76 511.137C1631.48 513.788 1631.54 518.145 1628.88 520.866C1627.54 522.254 1625.74 522.95 1623.96 522.95Z" fill="white"/>
<path d="M1593.13 556.314C1591.46 556.314 1589.79 555.71 1588.46 554.488C1585.66 551.907 1585.49 547.554 1588.07 544.762L1618.89 511.397C1621.47 508.605 1625.84 508.434 1628.62 511.013C1631.42 513.592 1631.59 517.945 1629.01 520.738L1598.18 554.103C1596.82 555.571 1594.98 556.314 1593.13 556.314Z" fill="white"/>
<path d="M1414.64 521.943C1412.86 521.943 1411.06 521.246 1409.72 519.859C1407.06 517.135 1407.12 512.779 1409.84 510.129L1442.55 478.329C1445.26 475.682 1449.62 475.742 1452.27 478.465C1454.93 481.191 1454.86 485.546 1452.14 488.195L1419.44 519.995C1418.09 521.297 1416.38 521.943 1414.64 521.943Z" fill="white"/>
<path d="M1445.47 555.31C1443.62 555.31 1441.76 554.564 1440.42 553.098L1409.59 519.732C1407.01 516.941 1407.18 512.587 1409.98 510.008C1412.76 507.428 1417.12 507.603 1419.7 510.393L1450.52 543.757C1453.1 546.549 1452.92 550.903 1450.14 553.482C1448.81 554.704 1447.14 555.31 1445.47 555.31Z" fill="white"/>
<path d="M1566.42 539.444C1566.42 544.934 1562.62 549.385 1557.93 549.385C1553.22 549.385 1549.42 544.934 1549.42 539.444C1549.42 533.955 1553.22 529.504 1557.93 529.504C1562.62 529.504 1566.42 533.955 1566.42 539.444Z" fill="white"/>
<path d="M1478.66 551.492C1477.73 551.492 1476.79 551.307 1475.89 550.915C1472.42 549.392 1470.82 545.334 1472.36 541.853L1499.57 479.649C1501.09 476.17 1505.15 474.581 1508.62 476.102C1512.11 477.626 1513.7 481.685 1512.17 485.165L1484.95 547.367C1483.83 549.952 1481.3 551.492 1478.66 551.492Z" fill="white"/>
<path d="M1512.98 554.569C1512.06 554.569 1511.12 554.384 1510.22 553.992C1506.75 552.47 1505.15 548.411 1506.68 544.931L1535.02 480.153C1536.54 476.673 1540.61 475.081 1544.08 476.608C1547.56 478.129 1549.16 482.189 1547.63 485.671L1519.28 550.449C1518.16 553.031 1515.63 554.569 1512.98 554.569Z" fill="white"/>
<path d="M1277.79 663.972C1266.12 663.972 1256.62 654.477 1256.62 642.801C1256.62 631.127 1266.12 621.632 1277.79 621.632C1289.47 621.632 1298.96 631.127 1298.96 642.801C1298.96 654.477 1289.47 663.972 1277.79 663.972ZM1277.79 632.037C1271.86 632.037 1267.03 636.865 1267.03 642.801C1267.03 648.739 1271.86 653.569 1277.79 653.569C1283.73 653.569 1288.56 648.74 1288.56 642.801C1288.56 636.865 1283.73 632.037 1277.79 632.037Z" fill="white"/>
<path d="M1277.8 711.406C1274.92 711.406 1272.59 709.08 1272.59 706.205L1272.59 662.131C1272.59 659.259 1274.92 656.931 1277.79 656.929C1280.66 656.929 1282.99 659.258 1282.99 662.131L1283 706.203C1283 709.078 1280.67 711.406 1277.8 711.406Z" fill="white"/>
<path d="M1392.53 712.829C1392.52 712.829 1392.5 712.829 1392.5 712.829L1258.28 711.972C1255.41 711.955 1253.1 709.61 1253.11 706.736C1253.14 703.864 1255.47 701.551 1258.35 701.568L1392.56 702.424C1395.44 702.442 1397.75 704.785 1397.74 707.659C1397.71 710.521 1395.4 712.829 1392.53 712.829Z" fill="white"/>
<path d="M1318.15 618.224C1306.47 618.224 1296.97 608.728 1296.97 597.053C1296.97 585.378 1306.47 575.884 1318.15 575.884C1329.82 575.884 1339.32 585.378 1339.32 597.053C1339.32 608.728 1329.82 618.224 1318.15 618.224ZM1318.15 586.289C1312.21 586.289 1307.38 591.117 1307.38 597.053C1307.38 602.991 1312.21 607.82 1318.15 607.82C1324.08 607.82 1328.91 602.991 1328.91 597.053C1328.91 591.117 1324.08 586.289 1318.15 586.289Z" fill="white"/>
<path d="M1318.15 650.104C1315.27 650.104 1312.95 647.776 1312.95 644.901L1312.94 616.384C1312.94 613.513 1315.27 611.182 1318.15 611.181C1321.02 611.181 1323.35 613.51 1323.35 616.384L1323.35 644.899C1323.35 647.771 1321.02 650.1 1318.15 650.104Z" fill="white"/>
<path d="M1334.12 711.399C1331.24 711.4 1328.91 709.072 1328.91 706.199L1328.91 662.124C1328.91 659.252 1331.24 656.924 1334.12 656.924C1336.99 656.923 1339.3 659.252 1339.3 662.124L1339.32 706.197C1339.32 709.072 1336.99 711.399 1334.12 711.399Z" fill="white"/>
<path d="M1334.12 667.328C1332.71 667.328 1331.32 666.767 1330.3 665.662L1314.33 648.436C1312.38 646.329 1312.5 643.037 1314.61 641.082C1316.72 639.128 1320.01 639.255 1321.96 641.36L1337.93 658.589C1339.88 660.695 1339.76 663.988 1337.65 665.942C1336.65 666.869 1335.38 667.328 1334.12 667.328Z" fill="white"/>
<path d="M1330.83 465.335C1339.26 466.603 1346.72 471.053 1351.84 477.866C1356.97 484.688 1359.17 493.103 1358.05 501.566C1356.91 510.124 1352.5 517.721 1345.64 522.963C1338.77 528.206 1330.29 530.463 1321.74 529.32C1313.07 528.153 1305.42 523.669 1300.19 516.71C1295.05 509.888 1292.85 501.471 1293.99 493.012C1295.13 484.454 1299.53 476.857 1306.39 471.614C1313.25 466.372 1321.74 464.116 1330.29 465.257C1330.48 465.284 1330.65 465.307 1330.83 465.335ZM1322.81 518.535C1322.93 518.554 1323.05 518.57 1323.17 518.587C1328.86 519.346 1334.51 517.846 1339.07 514.361C1343.62 510.877 1346.56 505.822 1347.31 500.133C1348.86 488.581 1340.74 477.774 1329.22 476.039C1329.1 476.022 1328.98 476.006 1328.86 475.987C1323.17 475.229 1317.53 476.73 1312.97 480.216C1308.4 483.704 1305.48 488.753 1304.72 494.445C1303.18 505.996 1311.29 516.801 1322.81 518.535Z" fill="white"/>
<path d="M1207.41 533.117C1210.37 533.117 1212.79 535.505 1212.82 538.48L1213.09 564.884C1213.13 567.875 1210.72 570.327 1207.73 570.358C1207.71 570.358 1207.7 570.358 1207.68 570.358C1204.71 570.358 1202.29 567.97 1202.26 564.995L1201.99 538.592C1201.96 535.601 1204.36 533.149 1207.35 533.117C1207.37 533.117 1207.39 533.117 1207.41 533.117Z" fill="white"/>
<path d="M1207.41 476.802C1210.37 476.802 1212.79 479.193 1212.82 482.165L1213.1 508.571C1213.13 511.563 1210.73 514.013 1207.73 514.045C1207.71 514.045 1207.7 514.045 1207.68 514.045C1204.71 514.045 1202.29 511.656 1202.26 508.682L1201.99 482.277C1201.96 479.286 1204.36 476.835 1207.35 476.804C1207.37 476.802 1207.39 476.802 1207.41 476.802Z" fill="white"/>
<path d="M1191.78 518.474C1194.74 518.474 1197.16 520.862 1197.19 523.838C1197.22 526.829 1194.82 529.279 1191.83 529.31L1165.43 529.581C1165.41 529.581 1165.39 529.581 1165.37 529.581C1162.4 529.581 1159.98 527.193 1159.95 524.22C1159.92 521.228 1162.32 518.777 1165.31 518.746L1191.72 518.474C1191.74 518.474 1191.76 518.474 1191.78 518.474Z" fill="white"/>
<path d="M1251.22 518.805C1254.18 518.805 1256.61 521.193 1256.63 524.167C1256.66 527.16 1254.26 529.61 1251.27 529.642L1224.87 529.913C1224.85 529.913 1224.83 529.913 1224.81 529.913C1221.84 529.913 1219.42 527.526 1219.39 524.552C1219.36 521.56 1221.76 519.108 1224.76 519.079L1251.16 518.806C1251.18 518.805 1251.2 518.805 1251.22 518.805Z" fill="white"/>
<path d="M1086.01 781.053C1082.85 781.124 1075.45 781.291 1069.95 776.516C1065.12 772.334 1064.86 764.662 1064.21 746.127C1063.84 735.285 1064.09 732.078 1065.64 728.059C1065.99 727.159 1066.35 726.351 1066.68 725.641C1064.91 725.24 1062.78 724.627 1060.59 723.358C1045.04 714.35 1035.52 698.256 1035.12 680.315C1034.48 652.166 1056.86 628.747 1085.01 628.108C1113.16 627.47 1136.58 649.852 1137.21 678.001C1137.64 696.679 1127.84 714.083 1111.64 723.42C1110.24 724.228 1108.81 724.706 1107.55 725.04C1107.9 725.823 1108.3 726.738 1108.68 727.765C1110.43 732.523 1110.36 736.921 1110.23 744.21C1109.94 761.266 1109.79 770.662 1102.84 776.344C1097.5 780.71 1091.01 780.905 1087.13 781.023C1086.77 781.034 1086.4 781.043 1086.01 781.053ZM1078.37 767.372C1080.09 768.598 1083.04 768.707 1085.73 768.645C1086.09 768.637 1086.43 768.628 1086.76 768.619C1089.5 768.535 1092.91 768.434 1094.98 766.735C1097.48 764.7 1097.61 756.465 1097.82 744.004C1097.94 737.509 1097.95 734.533 1097.04 732.062C1096.7 731.15 1096.32 730.314 1095.95 729.504C1094.77 726.894 1093.3 723.648 1094.62 719.701C1096.22 714.947 1100.78 713.892 1103.23 713.325C1104.03 713.137 1105.04 712.907 1105.44 712.67C1117.71 705.599 1125.13 692.422 1124.81 678.282C1124.33 656.972 1106.6 640.035 1085.29 640.517C1063.98 641 1047.04 658.726 1047.53 680.033C1047.83 693.617 1055.04 705.803 1066.81 712.623C1067.84 713.219 1069.14 713.489 1070.52 713.771C1073.25 714.33 1077.8 715.266 1079.65 720.089C1081.21 724.173 1079.56 727.56 1078.35 730.031C1077.96 730.824 1077.56 731.64 1077.22 732.523C1076.6 734.138 1076.26 735.544 1076.62 745.697C1076.95 755.131 1077.29 764.869 1078.37 767.372Z" fill="white"/>
<path d="M1071.19 766.239C1070.06 766.263 1068.92 765.986 1067.88 765.368C1064.94 763.62 1063.96 759.812 1065.71 756.87C1068.29 752.518 1074.23 744.585 1084.97 740.309C1092.89 737.158 1100.17 737.292 1104.9 737.957C1108.29 738.436 1110.65 741.576 1110.17 744.968C1109.69 748.363 1106.55 750.725 1103.16 750.246C1099.93 749.791 1094.94 749.699 1089.55 751.842C1082.23 754.756 1078.16 760.208 1076.39 763.197C1075.25 765.11 1073.25 766.193 1071.19 766.239Z" fill="white"/>
<path d="M1071.57 736.494C1069.77 736.535 1067.97 735.796 1066.71 734.324C1064.49 731.716 1064.79 727.8 1067.4 725.575C1072.55 721.17 1078.72 717.993 1085.24 716.389C1090.51 715.091 1095.92 714.801 1101.33 715.522C1104.73 715.974 1107.11 719.097 1106.66 722.493C1106.2 725.889 1103.09 728.278 1099.69 727.823C1095.82 727.306 1091.96 727.514 1088.21 728.438C1083.56 729.583 1079.15 731.855 1075.46 735.009C1074.33 735.977 1072.95 736.463 1071.57 736.494Z" fill="white"/>
<path d="M1084.89 618.456C1081.49 618.533 1078.66 615.86 1078.54 612.456L1077.92 593.328C1077.8 589.905 1080.49 587.037 1083.91 586.922C1083.94 586.922 1083.95 586.922 1083.98 586.922C1087.38 586.843 1090.2 589.515 1090.32 592.92L1090.95 612.047C1091.06 615.472 1088.38 618.34 1084.95 618.456C1084.93 618.456 1084.91 618.456 1084.89 618.456Z" fill="white"/>
<path d="M1157.11 688.298C1153.71 688.373 1150.88 685.701 1150.77 682.297C1150.65 678.872 1153.34 676.004 1156.77 675.891L1175.89 675.26C1175.91 675.26 1175.93 675.258 1175.96 675.258C1179.35 675.183 1182.18 677.855 1182.3 681.26C1182.41 684.683 1179.73 687.552 1176.3 687.664L1157.17 688.296C1157.15 688.296 1157.13 688.298 1157.11 688.298Z" fill="white"/>
<path d="M987.208 693.895C983.811 693.972 980.979 691.298 980.866 687.895C980.753 684.469 983.439 681.602 986.864 681.488L1005.99 680.858C1009.44 680.733 1012.28 683.43 1012.39 686.857C1012.51 690.281 1009.82 693.148 1006.4 693.261L987.27 693.893C987.249 693.895 987.228 693.895 987.208 693.895Z" fill="white"/>
<path d="M1139.49 635.163C1137.9 635.2 1136.3 634.628 1135.06 633.445C1132.58 631.075 1132.49 627.147 1134.86 624.669L1148.08 610.835C1150.45 608.357 1154.37 608.268 1156.85 610.636C1159.33 613.004 1159.42 616.931 1157.05 619.408L1143.83 633.246C1142.65 634.484 1141.07 635.128 1139.49 635.163Z" fill="white"/>
<path d="M1027.97 637.691C1026.39 637.727 1024.78 637.155 1023.54 635.972L1009.71 622.749C1007.23 620.381 1007.14 616.452 1009.51 613.976C1011.88 611.497 1015.81 611.407 1018.28 613.778L1032.12 627C1034.59 629.367 1034.68 633.294 1032.32 635.774C1031.13 637.011 1029.56 637.654 1027.97 637.691Z" fill="white"/>
<path d="M1027.62 491.604C1046.8 511.974 1045.83 544.147 1025.45 563.323C1005.08 582.499 972.914 581.527 953.736 561.155C934.562 540.785 935.533 508.612 955.903 489.439C976.273 470.261 1008.45 471.232 1027.62 491.604ZM962.25 553.144C977.006 568.822 1001.77 569.569 1017.44 554.813C1033.12 540.055 1033.87 515.296 1019.11 499.618C1004.35 483.944 979.594 483.194 963.916 497.953C948.241 512.706 947.491 537.466 962.25 553.144Z" fill="white"/>
<path d="M1112.86 500.457C1113.83 501.487 1114.49 502.826 1114.66 504.341C1115.08 508.067 1112.41 511.433 1108.68 511.856L1040.4 519.63C1036.67 520.055 1033.3 517.377 1032.88 513.651C1032.45 509.924 1035.13 506.559 1038.86 506.135L1107.15 498.361C1109.36 498.109 1111.44 498.95 1112.86 500.457Z" fill="white"/>
<path d="M1105.5 479.124C1106.07 479.725 1106.54 480.442 1106.86 481.253C1108.25 484.739 1106.56 488.689 1103.08 490.083L1038.92 515.752C1035.43 517.145 1031.48 515.452 1030.09 511.97C1028.7 508.488 1030.39 504.534 1033.87 503.141L1098.03 477.472C1100.7 476.404 1103.65 477.148 1105.5 479.124Z" fill="white"/>
<path d="M1114.08 489.2C1114.87 490.036 1115.46 491.088 1115.74 492.291C1116.6 495.942 1114.34 499.6 1110.69 500.459L1057.72 512.946C1054.07 513.805 1050.41 511.542 1049.55 507.894C1048.69 504.244 1050.95 500.588 1054.6 499.727L1107.57 487.239C1110.02 486.662 1112.47 487.49 1114.08 489.2Z" fill="white"/>
<path d="M1110.45 482.766C1112.57 485.019 1114.58 488.063 1115.68 492.062C1117.73 499.586 1115.16 505.855 1113.96 508.202C1112.25 511.542 1108.16 512.863 1104.82 511.152C1101.48 509.444 1100.15 505.352 1101.87 502.012C1102.24 501.28 1103.4 498.659 1102.58 495.635C1101.54 491.831 1098.07 490.11 1097.68 489.924C1094.28 488.336 1092.82 484.291 1094.41 480.897C1096 477.501 1100.04 476.037 1103.44 477.626C1104.71 478.22 1107.67 479.811 1110.45 482.766Z" fill="white"/>
<path d="M983.662 504.378C983.811 504.539 983.957 504.709 984.092 504.888C986.024 507.473 985.499 511.135 982.912 513.07C981.15 514.39 975.327 519.303 974.426 527.174C974.074 530.229 974.484 533.305 975.636 536.32C976.787 539.336 975.276 542.716 972.258 543.867C969.244 545.017 965.864 543.509 964.713 540.492C962.912 535.775 962.256 530.714 962.812 525.849C964.208 513.667 972.435 506.309 975.911 503.709C978.314 501.909 981.65 502.243 983.662 504.378Z" fill="white"/>
<path d="M67.492 527.516C60.593 527.516 57.058 521.453 55.894 519.463C53.809 515.887 51.692 510.8 48.765 503.761C46.133 497.437 42.858 489.565 38.394 479.848C32.086 466.113 27.266 457.101 23.745 450.517C17.466 438.781 14.6 433.425 15.537 423.402C16.613 411.839 22.412 399.213 31.051 389.622C41.142 378.42 54.124 372.253 67.608 372.253C81.113 372.253 94.122 378.417 104.243 389.609C112.972 399.256 118.749 411.922 119.699 423.475C120.567 434.089 117.026 440.186 111.153 450.288C107.172 457.14 101.718 466.522 94.849 481.709C90.414 491.507 87.35 499.388 84.886 505.72C82.468 511.933 80.719 516.423 78.838 519.734C77.761 521.63 74.475 527.403 67.683 527.517H67.492V527.516ZM67.61 385.879C46.043 385.879 30.696 408.466 29.188 424.656C28.652 430.424 29.893 432.982 35.852 444.121C39.455 450.855 44.391 460.076 50.871 474.189C55.436 484.13 58.762 492.13 61.435 498.556C63.679 503.948 65.833 509.124 67.42 512.067C68.739 509.417 70.434 505.06 72.09 500.804C74.61 494.322 77.752 486.255 82.335 476.121C89.488 460.308 95.144 450.578 99.273 443.475C105.039 433.553 106.526 430.704 106.025 424.583C104.702 408.421 89.446 385.883 67.61 385.879Z" fill="white"/>
<path d="M80.447 426.592C80.447 433.944 74.693 439.903 67.595 439.903C60.497 439.903 54.744 433.944 54.744 426.592C54.744 419.239 60.497 413.28 67.595 413.28C74.693 413.28 80.447 419.239 80.447 426.592Z" fill="white"/>
<path d="M879.612 747.438C873.277 747.438 870.029 741.837 868.964 739.996C867.047 736.692 865.104 731.993 862.416 725.487C859.999 719.644 856.994 712.371 852.895 703.39C847.102 690.699 842.675 682.37 839.441 676.287C833.677 665.442 831.045 660.491 831.906 651.231C832.893 640.546 838.219 628.877 846.149 620.016C855.414 609.664 867.337 603.963 879.72 603.963C892.118 603.963 904.064 609.661 913.359 620.002C921.376 628.92 926.679 640.62 927.548 651.3C928.347 661.105 925.093 666.74 919.702 676.073C916.049 682.405 911.037 691.076 904.73 705.108C900.659 714.162 897.846 721.442 895.581 727.295C893.36 733.035 891.756 737.186 890.029 740.243C889.039 741.996 886.021 747.331 879.784 747.435L879.612 747.438ZM879.721 616.557C859.917 616.557 845.826 637.431 844.441 652.393C843.948 657.721 845.087 660.087 850.56 670.377C853.868 676.599 858.398 685.122 864.35 698.161C868.542 707.349 871.598 714.742 874.053 720.679C876.111 725.662 878.09 730.446 879.548 733.165C880.759 730.715 882.317 726.687 883.834 722.756C886.151 716.767 889.035 709.311 893.244 699.95C899.811 685.336 905.005 676.346 908.798 669.783C914.091 660.614 915.457 657.978 914.996 652.325C913.781 637.389 899.771 616.562 879.721 616.557Z" fill="white"/>
<path d="M891.509 654.18C891.509 660.973 886.223 666.482 879.708 666.482C873.189 666.482 867.908 660.973 867.908 654.18C867.908 647.386 873.19 641.88 879.708 641.88C886.223 641.88 891.509 647.386 891.509 654.18Z" fill="white"/>
<path d="M796.828 474.65C821.544 474.65 846.262 474.646 870.979 474.652C880.63 474.654 887.311 481.074 887.375 490.738C887.483 506.909 887.471 523.089 887.379 539.26C887.326 548.622 880.593 555.191 871.253 555.211C857.947 555.235 844.645 555.279 831.341 555.195C820.645 555.13 811.017 551.829 802.568 545.203C798.741 542.198 795.08 542.143 791.268 545.052C782.34 551.855 772.293 555.275 761.047 555.23C748.374 555.179 735.7 555.224 723.025 555.216C712.752 555.211 706.26 548.716 706.252 538.413C706.239 522.868 706.243 507.323 706.249 491.778C706.257 480.986 712.576 474.651 723.306 474.65C747.813 474.647 772.321 474.65 796.828 474.65ZM797.058 485.095C772.273 485.095 747.494 485.092 722.712 485.095C718.443 485.096 716.503 486.98 716.502 491.165C716.492 507.129 716.492 523.091 716.502 539.052C716.505 543.027 718.414 544.954 722.437 544.959C735.878 544.983 749.32 544.98 762.761 544.958C770.797 544.946 777.989 542.383 784.398 537.584C792.729 531.347 800.69 531.295 809.061 537.396C815.062 541.772 821.693 544.738 829.194 544.838C843.403 545.032 857.616 544.968 871.829 544.938C875.24 544.931 877.159 542.796 877.163 539.292C877.179 523.329 877.173 507.367 877.17 491.406C877.166 486.898 875.333 485.093 870.777 485.093C846.203 485.093 821.63 485.095 797.058 485.095Z" fill="white"/>
<path d="M863.425 520.16C863.233 520.16 863.036 520.145 862.842 520.126C860.029 519.807 858.012 517.272 858.327 514.46C858.508 512.881 858.806 507.392 855.134 503.049C853.712 501.366 851.904 500.067 849.759 499.184C847.141 498.109 845.895 495.113 846.971 492.497C848.049 489.883 851.043 488.637 853.658 489.712C857.286 491.206 860.502 493.53 862.955 496.436C869.103 503.708 868.884 512.271 868.506 515.614C868.209 518.228 865.994 520.16 863.425 520.16Z" fill="white"/>
<path d="M448.073 292.211C444.962 292.211 437.674 292.211 432.355 287.385C427.702 283.157 427.612 275.598 427.387 257.327C427.259 246.642 427.581 243.49 429.198 239.566C429.559 238.684 429.93 237.898 430.281 237.208C428.546 236.772 426.454 236.122 424.324 234.821C409.218 225.599 400.2 209.542 400.2 191.859C400.2 164.125 422.767 141.559 450.502 141.559C478.239 141.559 500.804 164.125 500.804 191.859C500.804 210.266 490.762 227.189 474.601 236.023C473.207 236.785 471.785 237.225 470.54 237.525C470.867 238.305 471.236 239.214 471.586 240.234C473.209 244.956 473.036 249.288 472.752 256.466C472.089 273.258 471.722 282.505 464.753 287.948C459.396 292.127 452.999 292.175 449.181 292.204C448.827 292.209 448.459 292.211 448.073 292.211ZM440.859 278.566C442.525 279.813 445.423 279.986 448.072 279.986C448.426 279.986 448.763 279.984 449.086 279.982C451.788 279.961 455.15 279.939 457.229 278.315C459.73 276.361 460.05 268.256 460.536 255.988C460.792 249.592 460.866 246.662 460.023 244.207C459.712 243.303 459.36 242.472 459.017 241.664C457.912 239.068 456.537 235.837 457.925 231.982C459.603 227.338 464.115 226.399 466.542 225.894C467.341 225.727 468.335 225.521 468.739 225.3C480.978 218.609 488.579 205.796 488.579 191.862C488.579 170.868 471.498 153.787 450.502 153.787C429.51 153.787 412.428 170.868 412.428 191.862C412.428 205.246 419.256 217.407 430.696 224.391C431.696 225.002 432.972 225.295 434.324 225.602C436.993 226.215 441.461 227.237 443.172 232.027C444.621 236.089 442.916 239.382 441.665 241.79C441.267 242.562 440.854 243.358 440.502 244.219C439.853 245.795 439.491 247.175 439.615 257.183C439.727 266.479 439.845 276.08 440.859 278.566Z" fill="white"/>
<path d="M433.807 277.292C432.7 277.292 431.581 276.994 430.576 276.365C427.711 274.576 426.84 270.805 428.627 267.941C431.265 263.715 437.286 256.037 447.959 252.065C455.828 249.14 463.002 249.435 467.636 250.194C470.968 250.739 473.225 253.884 472.678 257.216C472.13 260.548 468.987 262.81 465.655 262.257C462.48 261.737 457.573 261.533 452.217 263.524C444.943 266.231 440.807 271.509 438.994 274.417C437.84 276.272 435.845 277.292 433.807 277.292Z" fill="white"/>
<path d="M434.854 248.005C433.081 248.005 431.322 247.237 430.114 245.759C427.978 243.143 428.369 239.292 430.987 237.158C436.159 232.935 442.307 229.945 448.763 228.509C453.977 227.35 459.311 227.185 464.622 228.012C467.958 228.535 470.239 231.662 469.715 234.998C469.193 238.332 466.069 240.613 462.733 240.092C458.941 239.498 455.133 239.616 451.414 240.442C446.811 241.466 442.418 243.603 438.714 246.626C437.581 247.554 436.213 248.005 434.854 248.005Z" fill="white"/>
<path d="M450.603 132.052C447.255 132.052 444.524 129.356 444.487 126L444.293 107.149C444.26 103.773 446.969 101.01 450.345 100.974C450.366 100.974 450.387 100.974 450.411 100.974C453.754 100.974 456.486 103.668 456.519 107.023L456.715 125.874C456.748 129.251 454.04 132.016 450.665 132.049C450.644 132.05 450.623 132.052 450.603 132.052Z" fill="white"/>
<path d="M520.173 202.447C516.825 202.447 514.093 199.753 514.06 196.395C514.025 193.02 516.733 190.257 520.11 190.222L538.96 190.028C538.984 190.028 539.004 190.028 539.023 190.028C542.37 190.028 545.103 192.725 545.136 196.078C545.169 199.453 542.463 202.218 539.086 202.251L520.237 202.445C520.212 202.447 520.192 202.447 520.173 202.447Z" fill="white"/>
<path d="M352.713 204.167C349.368 204.167 346.637 201.473 346.602 198.117C346.568 194.743 349.275 191.977 352.652 191.944L371.506 191.75C371.526 191.75 371.546 191.75 371.567 191.75C374.915 191.75 377.645 194.445 377.679 197.8C377.713 201.175 375.005 203.94 371.628 203.973L352.78 204.167C352.756 204.167 352.732 204.167 352.713 204.167Z" fill="white"/>
<path d="M504 149.72C502.437 149.72 500.874 149.125 499.678 147.933C497.292 145.544 497.292 141.675 499.678 139.287L513.008 125.956C515.395 123.568 519.264 123.57 521.654 125.956C524.039 128.344 524.039 132.213 521.654 134.6L508.323 147.932C507.129 149.125 505.565 149.72 504 149.72Z" fill="white"/>
<path d="M394.12 149.72C392.553 149.72 390.991 149.125 389.796 147.933L376.467 134.6C374.077 132.214 374.077 128.342 376.467 125.956C378.854 123.57 382.723 123.57 385.111 125.956L398.442 139.287C400.831 141.675 400.831 145.544 398.442 147.933C397.249 149.125 395.682 149.72 394.12 149.72Z" fill="white"/>
<path d="M712.254 668.565C712.254 672.327 709.224 675.396 705.45 675.438L671.948 675.781C668.154 675.821 665.043 672.775 665.004 668.975C665.004 668.952 665.004 668.93 665.004 668.905C665.004 665.141 668.034 662.071 671.808 662.033L705.309 661.689C709.104 661.649 712.214 664.695 712.254 668.492C712.254 668.514 712.254 668.538 712.254 668.565Z" fill="white"/>
<path d="M783.693 667.373C783.693 671.135 780.662 674.209 776.89 674.247L743.387 674.591C739.59 674.629 736.482 671.583 736.442 667.788C736.442 667.761 736.442 667.738 736.442 667.715C736.442 663.951 739.472 660.882 743.246 660.84L776.748 660.497C780.544 660.457 783.653 663.504 783.693 667.299C783.693 667.327 783.693 667.348 783.693 667.373Z" fill="white"/>
<path d="M730.212 648.151C730.212 651.913 727.183 654.983 723.409 655.023C719.612 655.064 716.504 652.014 716.463 648.22L716.119 614.716C716.119 614.695 716.119 614.673 716.119 614.646C716.119 610.884 719.149 607.812 722.923 607.774C726.72 607.734 729.826 610.782 729.867 614.578L730.211 648.079C730.212 648.105 730.212 648.126 730.212 648.151Z" fill="white"/>
<path d="M731.052 723.564C731.052 727.329 728.022 730.396 724.248 730.438C720.453 730.476 717.343 727.428 717.302 723.632L716.958 690.132C716.958 690.11 716.958 690.083 716.958 690.06C716.958 686.295 719.988 683.228 723.763 683.187C727.559 683.148 730.668 686.197 730.707 689.992L731.052 723.492C731.052 723.516 731.052 723.541 731.052 723.564Z" fill="white"/>
<path d="M81.651 655.544C83.077 666.258 80.289 676.921 73.792 685.568C67.288 694.229 57.812 699.883 47.097 701.492C36.268 703.12 25.451 700.431 16.644 693.923C7.83398 687.415 2.08798 677.867 0.459984 667.037C-1.17802 656.062 1.58598 645.157 8.22298 636.324C14.726 627.665 24.209 622.009 34.916 620.404C45.746 618.776 56.562 621.464 65.37 627.972C74.181 634.477 79.925 644.025 81.555 654.855C81.587 655.088 81.62 655.315 81.651 655.544ZM13.985 664.539C14.005 664.69 14.025 664.845 14.051 664.998C15.13 672.201 18.951 678.549 24.807 682.877C30.663 687.203 37.856 688.992 45.057 687.909C59.68 685.714 69.985 672.008 68.035 657.358C68.014 657.206 67.992 657.05 67.968 656.898C66.885 649.697 63.065 643.35 57.206 639.022C51.348 634.694 44.16 632.907 36.958 633.99C22.337 636.185 12.033 649.889 13.985 664.539Z" fill="white"/>
<path d="M255.465 690.587C256.541 697.741 251.609 704.412 244.455 705.486C237.303 706.56 230.63 701.632 229.555 694.479C228.481 687.324 233.409 680.654 240.564 679.578C247.719 678.504 254.39 683.433 255.465 690.587Z" fill="white"/>
<path d="M159.431 578.097C159.431 581.861 156.401 584.928 152.627 584.971L119.125 585.313C115.33 585.356 112.22 582.307 112.181 578.51C112.181 578.485 112.181 578.464 112.181 578.437C112.181 574.676 115.211 571.606 118.985 571.568L152.487 571.223C156.282 571.183 159.392 574.229 159.432 578.027C159.431 578.048 159.431 578.072 159.431 578.097Z" fill="white"/>
<path d="M230.871 576.907C230.871 580.669 227.84 583.74 224.067 583.778L190.566 584.125C186.767 584.163 183.661 581.114 183.619 577.319C183.619 577.295 183.619 577.272 183.619 577.246C183.619 573.484 186.65 570.414 190.423 570.374L223.925 570.031C227.723 569.99 230.83 573.038 230.868 576.834C230.871 576.858 230.871 576.88 230.871 576.907Z" fill="white"/>
<path d="M177.39 557.685C177.39 561.447 174.361 564.517 170.587 564.558C166.792 564.597 163.683 561.548 163.642 557.753L163.298 524.25C163.298 524.229 163.298 524.206 163.298 524.18C163.298 520.42 166.328 517.346 170.103 517.307C173.898 517.268 177.008 520.317 177.046 524.111L177.389 557.612C177.39 557.639 177.39 557.66 177.39 557.685Z" fill="white"/>
<path d="M178.23 633.097C178.23 636.861 175.201 639.931 171.427 639.972C167.632 640.012 164.522 636.963 164.482 633.167L164.137 599.664C164.137 599.643 164.137 599.618 164.137 599.595C164.137 595.83 167.166 592.76 170.942 592.722C174.739 592.683 177.847 595.73 177.887 599.525L178.23 633.026C178.23 633.049 178.23 633.074 178.23 633.097Z" fill="white"/>
<path d="M468.776 432.047C444.641 432.047 425.831 413.995 425.831 387.206C425.831 359.463 445.784 341.223 468.205 341.223C494.239 341.223 505.641 361.555 505.641 372.382C505.641 379.418 501.459 384.733 491.769 385.115C487.399 385.305 480.94 385.305 473.906 385.305C459.658 385.305 443.501 385.115 439.321 385.115C437.423 385.115 437.043 385.872 437.043 388.534C437.043 409.248 450.725 421.974 468.966 421.974C482.839 421.974 490.625 416.083 496.517 409.437C497.658 408.297 498.987 407.724 500.32 407.724C503.17 407.724 506.022 410.194 506.022 413.231C506.021 417.607 492.715 432.047 468.776 432.047ZM468.394 350.724C450.149 350.724 438.564 367.067 438.564 374.095C438.564 375.996 440.271 375.996 462.314 375.996C472.196 375.996 482.839 375.996 488.158 375.807C492.719 375.62 494.431 373.524 494.431 370.486C494.428 364.974 487.774 350.724 468.394 350.724Z" fill="#0B546F"/>
<path d="M608.242 352.433C606.723 352.433 605.202 352.247 603.87 352.247C601.21 352.247 600.452 352.623 598.742 354.906C592.657 362.318 583.346 373.148 575.747 382.454C575.176 383.025 574.987 383.596 574.987 383.976C574.987 384.547 575.371 384.926 575.939 385.687C584.681 396.138 595.508 408.489 602.922 417.23C604.253 418.561 605.203 419.515 611.662 419.515C615.272 419.316 616.792 422.166 616.792 424.638C616.792 427.113 615.083 429.579 611.852 429.579H611.47C606.344 429.392 601.593 429.203 597.221 429.203C592.656 429.203 588.29 429.392 583.917 429.579H583.539C580.118 429.579 578.409 427.298 578.409 425.016C578.409 420.078 583.346 420.078 585.058 420.078C589.048 420.078 590.757 419.895 590.757 418.938C590.757 418.561 590.571 418.367 590.38 417.993C589.62 417.038 569.479 391.197 567.957 391.197C567.577 391.197 567.197 391.767 566.436 392.524C561.498 398.605 552.567 410.004 546.104 417.991C545.912 418.177 545.912 418.366 545.912 418.751C546.104 419.515 547.621 419.697 549.52 419.697C553.514 419.697 557.5 419.892 557.5 424.635C557.5 427.111 555.976 429.576 551.988 429.576H551.61C547.047 429.389 542.867 429.199 538.69 429.199C534.507 429.199 530.136 429.389 525.202 429.576C521.205 429.767 519.881 426.92 519.881 424.635C519.881 422.163 521.4 419.697 524.631 419.697H524.817C529.95 419.697 531.088 419.13 531.47 418.936C534.7 417.038 561.492 384.355 561.492 383.79C561.492 382.644 537.929 354.903 537.738 354.718C536.408 353.192 535.65 352.245 533.747 352.245C530.709 352.245 530.895 352.245 528.048 352.431C527.666 352.431 522.915 352.431 522.915 347.689C522.915 345.212 524.437 342.935 527.663 342.935H528.046C532.984 343.123 537.545 343.123 541.915 343.123C546.476 343.123 550.846 343.123 555.216 342.935H555.6C558.828 342.935 560.349 345.214 560.349 347.31C560.349 352.053 556.737 352.053 553.7 352.053C551.416 352.053 549.517 352.053 549.517 353.386C549.517 353.764 549.517 354.334 549.894 354.717C551.416 356.8 566.809 376.759 568.518 376.759C570.039 376.759 586.95 354.333 586.95 353.385C586.761 352.429 585.618 352.244 583.72 352.244C579.92 352.244 576.118 352.244 576.118 347.49C576.118 345.211 577.448 342.932 580.872 342.932H581.249C585.811 343.121 589.989 343.121 594.169 343.121C598.537 343.121 603.1 343.121 608.041 342.932H608.23C611.649 342.932 613.362 345.404 613.362 347.872C613.362 350.151 611.841 352.428 608.421 352.428H608.238V352.433H608.242Z" fill="#0B546F"/>
<path d="M662.58 478.604C657.447 478.414 650.796 478.414 644.525 478.414C640.153 478.414 635.786 478.414 632.365 478.604C631.23 478.604 626.853 478.604 627.046 473.472C627.046 470.813 628.566 468.344 631.985 468.344H632.365C634.834 468.531 635.405 468.531 638.446 468.531C641.105 468.531 642.058 466.821 642.058 463.968C642.245 444.963 642.245 415.515 642.245 390.438V362.884C642.245 357.373 640.538 353.763 635.597 353.572C633.891 353.572 634.266 353.763 631.792 353.763H631.604C628.183 353.763 626.281 351.101 626.281 348.433C626.281 345.971 628.183 343.121 631.792 343.121C634.266 343.121 636.165 342.933 638.065 342.933C645.285 343.121 651.746 347.685 652.315 355.092C652.507 356.613 652.315 358.129 652.697 358.129C653.073 358.129 653.454 357.558 654.216 356.612C660.487 347.684 672.834 341.597 685.569 341.597C710.273 341.597 728.704 360.023 728.704 386.825C728.704 413.992 710.273 431.851 685.569 431.851C674.36 431.851 662.96 427.292 655.357 417.986C654.22 416.658 653.649 415.705 653.459 415.705C653.079 415.705 653.079 416.658 653.079 418.747V463.967C653.079 466.442 654.032 468.343 657.45 468.343C660.492 468.343 660.11 468.153 662.961 468.153H663.149C666.381 468.153 668.091 470.622 668.091 473.28C668.091 475.942 666.378 478.603 662.769 478.603H662.58V478.604ZM717.495 386.832C717.495 365.546 703.239 351.485 685.195 351.485C667.144 351.485 652.89 365.546 652.89 386.832C652.89 408.109 667.144 421.978 685.195 421.978C703.239 421.975 717.495 408.107 717.495 386.832Z" fill="#0B546F"/>
<path d="M782.476 429.771C777.343 429.581 771.648 429.391 766.324 429.391C761.004 429.391 755.683 429.58 751.121 429.771C750.362 429.771 745.235 429.965 745.235 424.447C745.235 421.791 747.132 419.132 750.931 419.132H751.121C752.645 419.132 753.78 419.317 754.731 419.317C757.772 419.317 761.381 419.317 761.381 415.712C761.572 398.987 761.761 364.024 761.761 337.041V311.77C761.761 306.074 760.621 303.604 755.495 303.416C753.779 303.416 753.779 303.416 751.308 303.605H750.93C747.511 303.605 745.994 301.132 745.994 298.47C745.994 295.621 747.892 292.774 751.501 292.774H757.395C768.984 292.774 772.977 299.801 772.977 308.16V308.737C772.6 329.258 772.403 372.2 772.403 399.753V415.715C772.403 418.75 774.88 419.136 780.197 419.136H782.475H782.664C786.461 419.136 788.362 421.795 788.362 424.451C788.362 427.116 786.46 429.775 782.664 429.775H782.476V429.771Z" fill="#0B546F"/>
<path d="M802.805 386.448C802.805 360.033 821.426 341.032 846.702 341.032C871.972 341.032 890.972 360.033 890.972 386.448C890.972 413.807 871.972 432.043 846.702 432.043C821.423 432.047 802.805 413.808 802.805 386.448ZM879.756 386.448C879.756 364.973 864.941 350.915 846.7 350.915C828.456 350.915 813.823 364.977 813.823 386.448C813.823 407.726 828.459 421.976 846.7 421.976C864.941 421.977 879.756 407.73 879.756 386.448Z" fill="#0B546F"/>
<path d="M943.411 429.578C938.474 429.392 932.96 429.2 927.834 429.2C922.695 429.2 917.571 429.392 913.201 429.578C908.826 429.77 907.5 426.728 907.5 424.64C907.5 421.978 909.397 419.319 913.012 419.319H913.201C915.67 419.319 916.617 419.513 919.663 419.513C921.56 419.513 922.695 418.18 922.695 416.09C922.89 401.453 923.078 389.87 923.078 377.135V362.319C923.078 357.188 921.557 353.769 916.807 353.574C915.101 353.574 915.286 353.574 912.817 353.765H912.632C909.205 353.765 907.498 351.103 907.498 348.442C907.498 345.594 909.205 342.935 912.816 342.935H918.138C925.737 342.935 932.009 346.164 933.152 353.003C933.152 353.573 933.53 353.573 933.723 353.573C934.097 353.573 934.483 353.387 934.861 353.003C939.991 345.974 951.013 341.6 961.842 341.223C965.456 341.032 968.114 342.934 968.114 346.544C968.114 349.202 966.216 351.867 962.796 351.867H962.606H961.65C948.544 351.867 934.288 360.412 933.915 374.474C933.915 378.084 933.724 383.973 933.724 391.191C933.724 398.418 933.915 406.966 933.915 416.086C933.915 417.987 935.049 419.508 937.144 419.508C939.992 419.508 940.749 419.508 943.415 419.315C946.647 419.13 949.115 421.404 949.115 424.446C949.115 426.923 947.215 429.578 943.604 429.578H943.411V429.578Z" fill="#0B546F"/>
<path d="M1025.87 432.047C1001.74 432.047 982.928 413.995 982.928 387.206C982.928 359.463 1002.88 341.223 1025.31 341.223C1051.34 341.223 1062.74 361.555 1062.74 372.383C1062.74 379.418 1058.55 384.733 1048.87 385.115C1044.5 385.307 1038.04 385.307 1031 385.307C1016.75 385.307 1000.6 385.115 996.424 385.115C994.523 385.115 994.142 385.872 994.142 388.534C994.142 409.248 1007.82 421.974 1026.06 421.974C1039.93 421.974 1047.73 416.086 1053.61 409.437C1054.76 408.297 1056.09 407.724 1057.42 407.724C1060.27 407.724 1063.11 410.194 1063.11 413.233C1063.12 417.607 1049.82 432.047 1025.87 432.047ZM1025.49 350.724C1007.25 350.724 995.663 367.067 995.663 374.095C995.663 375.996 997.366 375.996 1019.41 375.996C1029.29 375.996 1039.93 375.996 1045.25 375.807C1049.81 375.62 1051.52 373.524 1051.52 370.486C1051.52 364.974 1044.87 350.724 1025.49 350.724Z" fill="#0B546F"/>
<path d="M1109.67 353.192C1106.62 353.192 1106.62 353.573 1106.62 355.852C1106.62 363.074 1106.06 382.644 1106.06 396.709C1106.06 411.525 1106.44 421.597 1121.26 421.597C1122.96 421.597 1124.68 421.409 1126.58 421.218H1127.34C1130.19 421.218 1131.9 423.697 1131.9 426.16C1131.9 431.1 1127.34 432.049 1119.74 432.049C1095.42 432.049 1095.42 411.34 1095.42 402.976C1095.42 390.823 1095.8 367.64 1095.8 358.328V355.286C1095.8 353.392 1095.22 353.198 1093.9 353.198H1082.69C1079.08 353.198 1077.37 350.727 1077.37 348.075C1077.37 345.598 1079.08 343.13 1082.69 343.13H1093.7C1095.42 343.13 1095.8 342.941 1095.8 341.233C1095.8 340.471 1095.99 331.348 1095.99 324.698V320.14V319.951C1095.99 316.336 1098.84 314.441 1101.49 314.441C1104.34 314.441 1107 316.336 1107 320.328C1107 325.84 1106.63 341.043 1106.63 341.043C1106.63 343.131 1107 343.131 1109.48 343.131H1126.39C1129.99 343.131 1131.71 345.602 1131.71 348.075C1131.71 350.729 1129.99 353.2 1126.39 353.2H1109.67V353.192H1109.67Z" fill="#0B546F"/>
<path d="M1193.08 432.047C1168.94 432.047 1150.14 413.995 1150.14 387.206C1150.14 359.463 1170.09 341.223 1192.51 341.223C1218.54 341.223 1229.94 361.555 1229.94 372.383C1229.94 379.418 1225.76 384.733 1216.07 385.115C1211.71 385.307 1205.24 385.307 1198.21 385.307C1183.96 385.307 1167.81 385.115 1163.63 385.115C1161.73 385.115 1161.34 385.872 1161.34 388.534C1161.34 409.248 1175.03 421.974 1193.27 421.974C1207.14 421.974 1214.93 416.086 1220.82 409.437C1221.97 408.297 1223.29 407.724 1224.62 407.724C1227.47 407.724 1230.32 410.194 1230.32 413.233C1230.32 417.607 1217.02 432.047 1193.08 432.047ZM1192.7 350.724C1174.46 350.724 1162.86 367.067 1162.86 374.095C1162.86 375.996 1164.57 375.996 1186.62 375.996C1196.5 375.996 1207.14 375.996 1212.46 375.807C1217.02 375.62 1218.73 373.524 1218.73 370.486C1218.73 364.974 1212.08 350.724 1192.7 350.724Z" fill="#0B546F"/>
<path d="M1295.11 431.857C1265.85 431.857 1250.46 409.628 1250.46 387.015C1250.46 360.415 1269.27 340.465 1293.21 340.465C1301.39 340.465 1309.18 342.935 1314.69 346.162C1315.06 346.356 1315.25 346.541 1315.63 346.541C1316.2 346.541 1316.39 345.404 1316.59 344.451C1316.77 342.168 1319.06 341.222 1321.15 341.222C1323.99 341.222 1326.65 342.741 1326.65 345.97V346.354C1326.47 350.34 1326.47 353.189 1326.47 356.233C1326.47 359.081 1326.47 362.124 1326.65 366.487V366.863C1326.65 370.103 1323.99 371.62 1321.15 371.62C1318.67 371.62 1316.01 370.099 1315.83 367.063C1315.64 363.07 1316.2 360.788 1313.93 358.127C1309.18 352.617 1301.95 350.336 1294.54 350.336C1275.92 350.336 1261.48 365.158 1261.48 386.251C1261.48 403.54 1272.69 421.589 1294.54 421.589C1304.23 421.589 1313.55 417.792 1318.87 410.567C1320.39 408.479 1322.1 407.721 1323.8 407.721C1327.03 407.721 1329.89 410.384 1329.89 413.613C1329.88 419.128 1315.63 431.857 1295.11 431.857Z" fill="#0B546F"/>
<path d="M1438.57 429.58C1433.63 429.393 1428.69 429.2 1423.75 429.2C1419 429.2 1414.44 429.393 1410.06 429.58C1405.7 429.77 1404.37 426.728 1404.37 424.64C1404.37 421.978 1406.26 419.319 1409.89 419.319H1410.06C1412.53 419.319 1412.73 419.513 1415.77 419.513C1417.67 419.513 1418.8 418.181 1418.8 416.284C1418.8 410.006 1419 402.788 1419 395.755C1419 385.871 1418.8 376.947 1418.63 373.337C1417.67 357.563 1407.59 350.912 1396.76 350.912C1383.47 350.912 1369.03 360.794 1368.45 375.802C1368.45 379.417 1368.26 385.115 1368.26 391.952C1368.26 398.984 1368.45 407.346 1368.45 416.281C1368.45 418.177 1369.4 419.51 1371.68 419.51C1374.53 419.51 1374.35 419.51 1377.01 419.317C1380.23 419.132 1382.7 421.407 1382.7 424.448C1382.7 426.925 1380.81 429.582 1377.2 429.582H1377.01C1372.07 429.395 1366.93 429.202 1362.18 429.202C1357.44 429.202 1352.69 429.395 1348.31 429.582C1343.95 429.772 1342.62 426.73 1342.62 424.642C1342.62 421.98 1344.51 419.321 1348.12 419.321H1348.31C1350.78 419.321 1351.36 419.515 1354.39 419.515C1356.3 419.515 1357.44 418.374 1357.44 416.286C1357.63 400.889 1357.82 376.95 1357.82 354.147C1357.82 337.996 1357.63 322.602 1357.63 311.202C1357.63 306.263 1356.11 303.603 1351.17 303.414C1349.47 303.414 1349.47 303.414 1346.98 303.6H1346.8C1343.39 303.6 1341.48 300.935 1341.48 298.278C1341.48 295.049 1343 292.582 1351.17 292.582C1352.69 292.582 1354.39 292.772 1355.91 292.957C1364.85 293.907 1368.84 299.608 1368.84 307.398V318.231C1368.84 333.622 1368.65 350.722 1368.65 353.387C1368.65 353.953 1368.84 354.335 1369.03 354.335C1369.21 354.335 1369.4 354.146 1369.79 353.765C1376.44 345.214 1387.27 340.841 1397.91 340.841C1413.67 340.841 1428.88 350.534 1429.65 371.246C1429.84 379.23 1430.02 401.077 1430.02 416.088C1430.02 418.177 1430.98 419.51 1433.26 419.51C1436.1 419.51 1435.92 419.317 1438.57 419.317H1438.76C1442.37 419.317 1444.28 421.792 1444.28 424.448C1444.28 427.113 1442.37 429.582 1438.76 429.582H1438.57V429.58Z" fill="#0B546F"/>
<path d="M1473.34 431.291C1466.87 431.291 1464.21 426.923 1464.21 421.978C1464.21 415.712 1469.54 412.86 1473.53 412.86C1480.36 412.86 1483.03 418.558 1483.03 421.793C1483.03 426.729 1479.03 431.291 1473.34 431.291Z" fill="#0B546F"/>
<path d="M1542.31 429.771C1537.18 429.581 1531.48 429.391 1526.16 429.391C1520.83 429.391 1515.52 429.58 1510.95 429.771C1510.2 429.771 1505.06 429.965 1505.06 424.447C1505.06 421.791 1506.97 419.132 1510.77 419.132H1510.95C1512.47 419.132 1513.61 419.317 1514.56 419.317C1517.6 419.317 1521.21 419.317 1521.21 415.712C1521.41 398.988 1521.6 364.024 1521.6 337.041V311.77C1521.6 306.074 1520.46 303.604 1515.32 303.416C1513.61 303.416 1513.61 303.416 1511.14 303.605H1510.77C1507.34 303.605 1505.81 301.132 1505.81 298.47C1505.81 295.621 1507.72 292.774 1511.33 292.774H1517.22C1528.82 292.774 1532.81 299.801 1532.81 308.161V308.737C1532.42 329.258 1532.23 372.2 1532.23 399.753V415.715C1532.23 418.75 1534.72 419.136 1540.03 419.136H1542.31H1542.5C1546.3 419.136 1548.19 421.795 1548.19 424.451C1548.19 427.116 1546.3 429.775 1542.5 429.775H1542.31V429.771Z" fill="#0B546F"/>
<path d="M1624.4 417.799C1624.19 417.228 1624 416.847 1623.63 416.847C1623.44 416.847 1623.05 417.039 1622.86 417.416C1617.17 426.543 1605.01 432.049 1593.99 432.049C1574.79 432.049 1563.21 418.941 1563.21 405.827C1563.21 396.326 1569.46 386.639 1583.53 382.269C1595.32 378.66 1610.7 375.806 1618.69 374.478C1620.97 374.094 1621.72 373.523 1621.72 372.195C1621.72 371.244 1621.91 370.105 1621.91 369.156C1621.91 358.705 1617.55 350.531 1602.15 350.531C1591.9 350.531 1584.3 354.903 1579.92 359.65C1578.78 360.982 1577.26 361.554 1575.93 361.554C1573.09 361.554 1570.62 359.463 1570.62 356.421C1570.62 349.199 1586.58 341.031 1602.92 341.031C1620.58 341.031 1632.56 348.822 1632.56 370.103C1632.56 371.811 1632.56 373.521 1632.37 375.421C1631.79 381.689 1631.42 391.567 1631.42 398.794C1631.42 412.665 1632.75 417.226 1640.36 419.892C1642.63 420.646 1643.58 422.738 1643.58 424.631C1643.58 427.294 1641.67 429.957 1638.45 429.957C1632.95 429.962 1626.1 424.83 1624.4 417.799ZM1621.54 388.728V386.256C1621.54 384.735 1620.97 384.166 1619.64 384.166H1619.07C1589.24 388.921 1573.47 392.716 1573.47 406.014C1573.47 413.998 1581.06 421.978 1593.8 421.978C1603.5 421.977 1621.54 417.992 1621.54 388.728Z" fill="#0B546F"/>
<mask id="mask0" mask-type="alpha" maskUnits="userSpaceOnUse" x="170" y="269" width="227" height="227">
<path d="M396.898 387.25C394.275 449.878 341.379 498.524 278.75 495.899C216.122 493.278 167.479 440.379 170.101 377.75C172.726 315.125 225.623 266.478 288.252 269.101C350.879 271.725 399.524 324.622 396.898 387.25Z" fill="#606060"/>
</mask>
<g mask="url(#mask0)">
<path d="M396.898 387.25C394.275 449.878 341.379 498.524 278.75 495.899C216.122 493.278 167.479 440.379 170.101 377.75C172.726 315.125 225.623 266.478 288.252 269.101C350.879 271.725 399.524 324.622 396.898 387.25Z" fill="#606060"/>
<path opacity="0.6" d="M396.843 387.286C394.217 449.911 341.323 498.558 278.695 495.932C216.067 493.312 167.421 440.412 170.045 377.786C172.669 315.158 225.566 266.514 288.193 269.134C350.823 271.758 399.462 324.658 396.843 387.286Z" fill="#91E5DF"/>
<path opacity="0.71" d="M251.794 415.822L229.715 357.006L346.8 393.7L251.794 415.822Z" fill="white"/>
<path opacity="0.6" d="M229.713 357.006L302.88 335.166L346.798 393.7L229.713 357.006Z" fill="#91E5DF"/>
<path d="M189.426 377.26L229.715 357.009L251.794 415.822L189.426 377.26Z" fill="#FFDB8A"/>
<path opacity="0.6" d="M176.411 344.685L229.715 357.006L189.426 377.26L176.411 344.685Z" fill="#EAE068"/>
<path opacity="0.71" d="M169.432 428.583L189.417 377.458L193.437 451.679L169.432 428.583Z" fill="#C99012"/>
<path d="M193.437 451.679L189.014 377.215L251.794 415.822L193.437 451.679Z" fill="#FFB600"/>
<path d="M227.206 481.198L174.162 451.842L298.033 450.809L227.206 481.198Z" fill="#FFB600"/>
<path opacity="0.6" d="M251.794 415.822L193.437 451.679L298.032 450.809L251.794 415.822Z" fill="#AA5F13"/>
<path opacity="0.2" d="M298.032 450.809L346.8 393.7L392.293 414.769L298.032 450.809Z" fill="black"/>
<path opacity="0.63" d="M346.895 393.823L298.032 450.809L251.794 415.816L346.895 393.823Z" fill="#EFAD45"/>
<path d="M346.8 393.7C348.284 376.767 349.63 359.824 350.836 342.874C352.004 326.456 353.048 310.025 353.953 293.589C381.462 315.593 390.22 334.593 394.599 359.71C398.415 381.578 397.662 407.4 392.296 414.674C377.133 407.682 361.967 400.692 346.8 393.7Z" fill="#08546E"/>
<path opacity="0.2" d="M298.032 450.809L393.492 414.312L342.511 564.096L298.032 450.809Z" fill="#FFDF00"/>
<path opacity="0.18" d="M241.896 276.888L339.144 228.488L302.841 335.166L241.896 276.888Z" fill="#C9F2EF"/>
<path opacity="0.3" d="M241.896 276.888L302.506 335.339L229.713 357.006L241.896 276.888Z" fill="#4CD8CA"/>
<path d="M328.624 259.395L353.953 293.589L302.877 335.166L328.624 259.395Z" fill="#57ADA3"/>
<path opacity="0.6" d="M340.47 558.897L227.299 481.198L298.032 450.809L340.47 558.897Z" fill="#D8761D"/>
<path d="M241.499 432.412C239.874 432.412 238.364 431.582 237.463 430.204C236.575 428.85 236.436 427.145 237.092 425.65L262.694 367.142C263.205 365.973 264.362 365.212 265.644 365.212C266.452 365.212 267.227 365.516 267.821 366.065L300.987 396.645C301.809 397.404 302.211 398.516 302.066 399.62C301.92 400.73 301.241 401.7 300.254 402.219L243.744 431.849C243.034 432.223 242.279 432.412 241.499 432.412ZM266.172 370.971L241.416 427.546C241.407 427.629 241.466 427.685 241.498 427.69L296.451 398.886L266.172 370.971Z" fill="white"/>
<path d="M299.485 401.929C298.656 401.929 297.868 401.622 297.261 401.059L263.853 370.261C263.07 369.538 262.684 368.47 262.823 367.414C262.964 366.355 263.61 365.43 264.556 364.936L325.393 333.039C325.868 332.792 326.394 332.658 326.923 332.658C328.032 332.658 329.059 333.219 329.671 334.159C330.278 335.082 330.375 336.243 329.928 337.266L302.495 399.962C301.97 401.159 300.789 401.929 299.485 401.929ZM268.554 368.173L298.977 396.223L323.964 339.119L268.554 368.173Z" fill="white"/>
</g>
</svg>
